<?xml version="1.0" encoding="UTF-8" standalone="no"?>
<!DOCTYPE svg PUBLIC "-//W3C//DTD SVG 1.1//EN" "http://www.w3.org/Graphics/SVG/1.1/DTD/svg11.dtd">
<svg xmlns="http://www.w3.org/2000/svg" version="1.1" viewBox="0 0 2914 179" width="2914.0pt" height="179.0pt">
<path d="M 0.00 0.00 L 2914.00 0.00 L 2914.00 5.00 C 2902.99 5.00 2891.97 5.01 2880.96 4.98 C 2876.91 4.86 2873.09 6.14 2869.04 6.02 C 2857.35 5.99 2845.65 6.01 2833.96 5.98 C 2829.91 5.86 2826.09 7.14 2822.04 7.02 C 2806.35 6.98 2790.65 7.02 2774.96 6.98 C 2770.91 6.86 2767.09 8.14 2763.04 8.02 C 2747.68 7.98 2732.32 8.02 2716.96 7.98 C 2712.91 7.86 2709.09 9.14 2705.04 9.02 C 2689.68 8.98 2674.32 9.02 2658.96 8.98 C 2654.91 8.86 2651.09 10.14 2647.04 10.02 C 2631.68 9.98 2616.32 10.02 2600.96 9.98 C 2596.91 9.86 2593.09 11.14 2589.04 11.02 C 2573.68 10.98 2558.32 11.02 2542.96 10.98 C 2538.91 10.86 2535.09 12.14 2531.04 12.02 C 2515.35 11.98 2499.65 12.02 2483.96 11.98 C 2479.91 11.86 2476.09 13.14 2472.04 13.02 C 2456.68 12.98 2441.32 13.02 2425.96 12.98 C 2421.91 12.86 2418.09 14.14 2414.04 14.02 C 2398.68 13.98 2383.32 14.02 2367.96 13.98 C 2363.91 13.86 2360.09 15.14 2356.04 15.02 C 2340.68 14.98 2325.32 15.02 2309.96 14.98 C 2305.91 14.86 2302.09 16.14 2298.04 16.02 C 2282.68 15.98 2267.32 16.02 2251.96 15.98 C 2247.91 15.86 2244.09 17.14 2240.04 17.02 C 2224.35 16.98 2208.65 17.02 2192.96 16.98 C 2188.91 16.86 2185.09 18.14 2181.04 18.02 C 2165.68 17.98 2150.32 18.02 2134.96 17.98 C 2130.91 17.86 2127.09 19.14 2123.04 19.02 C 2107.68 18.98 2092.32 19.02 2076.96 18.98 C 2072.91 18.86 2069.09 20.14 2065.04 20.02 C 2049.68 19.98 2034.32 20.02 2018.96 19.98 C 2014.91 19.86 2011.09 21.14 2007.04 21.02 C 1991.68 20.98 1976.32 21.02 1960.96 20.98 C 1956.91 20.86 1953.09 22.14 1949.04 22.02 C 1933.35 21.98 1917.65 22.02 1901.96 21.98 C 1897.91 21.86 1894.09 23.14 1890.04 23.02 C 1874.68 22.98 1859.32 23.02 1843.96 22.98 C 1839.91 22.86 1836.09 24.14 1832.04 24.02 C 1816.68 23.98 1801.32 24.02 1785.96 23.98 C 1781.91 23.86 1778.09 25.14 1774.04 25.02 C 1758.68 24.98 1743.32 25.02 1727.96 24.98 C 1723.91 24.86 1720.09 26.14 1716.04 26.02 C 1700.35 25.98 1684.65 26.02 1668.96 25.98 C 1664.91 25.86 1661.09 27.14 1657.04 27.02 C 1641.68 26.98 1626.32 27.02 1610.96 26.98 C 1606.91 26.86 1603.09 28.14 1599.04 28.02 C 1583.68 27.98 1568.32 28.02 1552.96 27.98 C 1548.91 27.86 1545.09 29.14 1541.04 29.02 C 1525.68 28.98 1510.32 29.02 1494.96 28.98 C 1490.91 28.86 1487.09 30.14 1483.04 30.02 C 1467.68 29.98 1452.32 30.02 1436.96 29.98 C 1432.91 29.86 1429.09 31.14 1425.04 31.02 C 1409.35 30.98 1393.65 31.02 1377.96 30.98 C 1373.91 30.86 1370.09 32.14 1366.04 32.02 C 1350.68 31.98 1335.32 32.02 1319.96 31.98 C 1315.91 31.86 1312.09 33.14 1308.04 33.02 C 1292.68 32.98 1277.32 33.02 1261.96 32.98 C 1257.91 32.86 1254.09 34.14 1250.04 34.02 C 1234.68 33.98 1219.32 34.02 1203.96 33.98 C 1199.91 33.86 1196.09 35.14 1192.04 35.02 C 1176.68 34.98 1161.32 35.02 1145.96 34.98 C 1141.91 34.86 1138.09 36.14 1134.04 36.02 C 1118.35 35.98 1102.65 36.02 1086.96 35.98 C 1082.91 35.86 1079.09 37.14 1075.04 37.02 C 1059.68 36.98 1044.32 37.02 1028.96 36.98 C 1024.91 36.86 1021.09 38.14 1017.04 38.02 C 1001.68 37.98 986.32 38.02 970.96 37.98 C 966.91 37.86 963.09 39.14 959.04 39.02 C 943.68 38.98 928.32 39.02 912.96 38.98 C 908.91 38.86 905.09 40.14 901.04 40.02 C 885.68 39.98 870.32 40.02 854.96 39.98 C 850.91 39.86 847.09 41.14 843.04 41.02 C 827.35 40.98 811.65 41.02 795.96 40.98 C 791.91 40.86 788.09 42.14 784.04 42.02 C 768.68 41.98 753.32 42.02 737.96 41.98 C 733.91 41.86 730.09 43.14 726.04 43.02 C 710.68 42.98 695.32 43.02 679.96 42.98 C 675.91 42.86 672.09 44.14 668.04 44.02 C 652.68 43.98 637.32 44.02 621.96 43.98 C 617.91 43.86 614.09 45.14 610.04 45.02 C 594.35 44.98 578.65 45.02 562.96 44.98 C 558.91 44.86 555.09 46.14 551.04 46.02 C 535.68 45.98 520.32 46.02 504.96 45.98 C 500.91 45.86 497.09 47.14 493.04 47.02 C 477.68 46.98 462.32 47.02 446.96 46.98 C 442.91 46.86 439.09 48.14 435.04 48.02 C 419.68 47.98 404.32 48.02 388.96 47.98 C 384.91 47.86 381.09 49.14 377.04 49.02 C 361.68 48.98 346.32 49.02 330.96 48.98 C 326.91 48.86 323.09 50.14 319.04 50.02 C 303.35 49.98 287.65 50.02 271.96 49.98 C 267.91 49.86 264.09 51.14 260.04 51.02 C 244.68 50.98 229.32 51.02 213.96 50.98 C 209.91 50.86 206.09 52.14 202.04 52.02 C 186.68 51.98 171.32 52.02 155.96 51.98 C 151.91 51.86 148.09 53.14 144.04 53.02 C 128.68 52.98 113.32 53.02 97.96 52.98 C 93.91 52.86 90.09 54.14 86.04 54.02 C 75.36 53.94 64.67 54.09 53.99 53.96 C 51.48 54.02 49.44 51.91 47.04 52.05 C 39.17 53.13 31.18 53.64 23.26 54.32 C 17.10 55.56 11.23 54.71 5.04 55.05 C 3.29 55.11 1.52 56.22 0.00 57.03 L 0.00 0.00 Z" fill="#fcde67" />
<path d="M 2880.96 4.98 C 2891.97 5.01 2902.99 5.00 2914.00 5.00 L 2914.00 177.15 C 2433.67 177.15 1953.33 177.15 1473.00 177.15 C 1469.10 177.23 1465.10 176.86 1461.23 177.35 C 1460.48 177.88 1459.74 178.43 1459.02 179.00 L 1458.67 179.00 C 1458.91 177.04 1456.02 177.03 1456.29 179.00 L 1455.92 179.00 C 1455.21 178.41 1454.47 177.85 1453.72 177.32 C 1450.19 176.89 1446.55 177.21 1443.00 177.15 C 969.00 177.15 495.00 177.14 21.00 177.15 C 14.00 177.25 7.00 176.92 0.00 176.99 L 0.00 57.03 C 1.52 56.22 3.29 55.11 5.04 55.05 C 11.23 54.71 17.10 55.56 23.26 54.32 C 31.18 53.64 39.17 53.13 47.04 52.05 C 49.44 51.91 51.48 54.02 53.99 53.96 C 64.67 54.09 75.36 53.94 86.04 54.02 C 90.09 54.14 93.91 52.86 97.96 52.98 C 113.32 53.02 128.68 52.98 144.04 53.02 C 148.09 53.14 151.91 51.86 155.96 51.98 C 171.32 52.02 186.68 51.98 202.04 52.02 C 206.09 52.14 209.91 50.86 213.96 50.98 C 229.32 51.02 244.68 50.98 260.04 51.02 C 264.09 51.14 267.91 49.86 271.96 49.98 C 287.65 50.02 303.35 49.98 319.04 50.02 C 323.09 50.14 326.91 48.86 330.96 48.98 C 346.32 49.02 361.68 48.98 377.04 49.02 C 381.09 49.14 384.91 47.86 388.96 47.98 C 404.32 48.02 419.68 47.98 435.04 48.02 C 439.09 48.14 442.91 46.86 446.96 46.98 C 462.32 47.02 477.68 46.98 493.04 47.02 C 497.09 47.14 500.91 45.86 504.96 45.98 C 520.32 46.02 535.68 45.98 551.04 46.02 C 555.09 46.14 558.91 44.86 562.96 44.98 C 578.65 45.02 594.35 44.98 610.04 45.02 C 614.09 45.14 617.91 43.86 621.96 43.98 C 637.32 44.02 652.68 43.98 668.04 44.02 C 672.09 44.14 675.91 42.86 679.96 42.98 C 695.32 43.02 710.68 42.98 726.04 43.02 C 730.09 43.14 733.91 41.86 737.96 41.98 C 753.32 42.02 768.68 41.98 784.04 42.02 C 788.09 42.14 791.91 40.86 795.96 40.98 C 811.65 41.02 827.35 40.98 843.04 41.02 C 847.09 41.14 850.91 39.86 854.96 39.98 C 870.32 40.02 885.68 39.98 901.04 40.02 C 905.09 40.14 908.91 38.86 912.96 38.98 C 928.32 39.02 943.68 38.98 959.04 39.02 C 963.09 39.14 966.91 37.86 970.96 37.98 C 986.32 38.02 1001.68 37.98 1017.04 38.02 C 1021.09 38.14 1024.91 36.86 1028.96 36.98 C 1044.32 37.02 1059.68 36.98 1075.04 37.02 C 1079.09 37.14 1082.91 35.86 1086.96 35.98 C 1102.65 36.02 1118.35 35.98 1134.04 36.02 C 1138.09 36.14 1141.91 34.86 1145.96 34.98 C 1161.32 35.02 1176.68 34.98 1192.04 35.02 C 1196.09 35.14 1199.91 33.86 1203.96 33.98 C 1219.32 34.02 1234.68 33.98 1250.04 34.02 C 1254.09 34.14 1257.91 32.86 1261.96 32.98 C 1277.32 33.02 1292.68 32.98 1308.04 33.02 C 1312.09 33.14 1315.91 31.86 1319.96 31.98 C 1335.32 32.02 1350.68 31.98 1366.04 32.02 C 1370.09 32.14 1373.91 30.86 1377.96 30.98 C 1393.65 31.02 1409.35 30.98 1425.04 31.02 C 1429.09 31.14 1432.91 29.86 1436.96 29.98 C 1452.32 30.02 1467.68 29.98 1483.04 30.02 C 1487.09 30.14 1490.91 28.86 1494.96 28.98 C 1510.32 29.02 1525.68 28.98 1541.04 29.02 C 1545.09 29.14 1548.91 27.86 1552.96 27.98 C 1568.32 28.02 1583.68 27.98 1599.04 28.02 C 1603.09 28.14 1606.91 26.86 1610.96 26.98 C 1626.32 27.02 1641.68 26.98 1657.04 27.02 C 1661.09 27.14 1664.91 25.86 1668.96 25.98 C 1684.65 26.02 1700.35 25.98 1716.04 26.02 C 1720.09 26.14 1723.91 24.86 1727.96 24.98 C 1743.32 25.02 1758.68 24.98 1774.04 25.02 C 1778.09 25.14 1781.91 23.86 1785.96 23.98 C 1801.32 24.02 1816.68 23.98 1832.04 24.02 C 1836.09 24.14 1839.91 22.86 1843.96 22.98 C 1859.32 23.02 1874.68 22.98 1890.04 23.02 C 1894.09 23.14 1897.91 21.86 1901.96 21.98 C 1917.65 22.02 1933.35 21.98 1949.04 22.02 C 1953.09 22.14 1956.91 20.86 1960.96 20.98 C 1976.32 21.02 1991.68 20.98 2007.04 21.02 C 2011.09 21.14 2014.91 19.86 2018.96 19.98 C 2034.32 20.02 2049.68 19.98 2065.04 20.02 C 2069.09 20.14 2072.91 18.86 2076.96 18.98 C 2092.32 19.02 2107.68 18.98 2123.04 19.02 C 2127.09 19.14 2130.91 17.86 2134.96 17.98 C 2150.32 18.02 2165.68 17.98 2181.04 18.02 C 2185.09 18.14 2188.91 16.86 2192.96 16.98 C 2208.65 17.02 2224.35 16.98 2240.04 17.02 C 2244.09 17.14 2247.91 15.86 2251.96 15.98 C 2267.32 16.02 2282.68 15.98 2298.04 16.02 C 2302.09 16.14 2305.91 14.86 2309.96 14.98 C 2325.32 15.02 2340.68 14.98 2356.04 15.02 C 2360.09 15.14 2363.91 13.86 2367.96 13.98 C 2383.32 14.02 2398.68 13.98 2414.04 14.02 C 2418.09 14.14 2421.91 12.86 2425.96 12.98 C 2441.32 13.02 2456.68 12.98 2472.04 13.02 C 2476.09 13.14 2479.91 11.86 2483.96 11.98 C 2499.65 12.02 2515.35 11.98 2531.04 12.02 C 2535.09 12.14 2538.91 10.86 2542.96 10.98 C 2558.32 11.02 2573.68 10.98 2589.04 11.02 C 2593.09 11.14 2596.91 9.86 2600.96 9.98 C 2616.32 10.02 2631.68 9.98 2647.04 10.02 C 2651.09 10.14 2654.91 8.86 2658.96 8.98 C 2674.32 9.02 2689.68 8.98 2705.04 9.02 C 2709.09 9.14 2712.91 7.86 2716.96 7.98 C 2732.32 8.02 2747.68 7.98 2763.04 8.02 C 2767.09 8.14 2770.91 6.86 2774.96 6.98 C 2790.65 7.02 2806.35 6.98 2822.04 7.02 C 2826.09 7.14 2829.91 5.86 2833.96 5.98 C 2845.65 6.01 2857.35 5.99 2869.04 6.02 C 2873.09 6.14 2876.91 4.86 2880.96 4.98 Z" fill="#000000" />
<path d="M 1322.91 95.01 L 1325.38 94.99 C 1325.40 100.94 1325.43 106.89 1325.35 112.83 C 1322.68 112.64 1320.02 113.11 1317.36 112.91 C 1313.52 110.99 1313.44 104.80 1315.60 101.67 C 1317.65 99.00 1320.26 100.15 1323.01 100.66 C 1322.97 98.78 1322.94 96.89 1322.91 95.01 Z" fill="#fcde67" />
<path d="M 1347.92 95.00 L 1350.38 95.00 C 1350.38 96.90 1350.36 98.80 1350.32 100.70 C 1352.15 100.33 1353.89 99.82 1355.77 100.01 C 1359.70 101.57 1360.01 107.86 1357.98 110.97 C 1355.85 114.39 1351.39 112.34 1347.94 112.84 C 1347.89 106.89 1347.92 100.95 1347.92 95.00 Z" fill="#fcde67" />
<path d="M 1280.10 96.14 C 1280.98 95.94 1281.88 95.80 1282.78 95.71 C 1285.11 99.95 1286.68 104.66 1288.52 109.14 C 1290.52 104.80 1292.35 100.39 1294.24 96.00 C 1295.49 96.02 1296.75 96.00 1298.00 95.95 C 1298.20 101.64 1298.11 107.31 1298.10 113.00 L 1295.68 113.01 C 1295.65 108.29 1295.69 103.57 1295.66 98.86 C 1293.37 103.33 1291.93 108.22 1289.52 112.62 L 1287.96 113.40 C 1285.44 109.33 1284.44 104.50 1282.06 100.32 C 1281.63 104.55 1281.74 108.75 1281.76 113.00 C 1280.92 113.00 1280.09 113.00 1279.25 113.00 C 1279.27 108.62 1279.23 104.24 1279.19 99.87 C 1279.34 98.87 1278.82 96.49 1280.10 96.14 Z" fill="#fcde67" />
<path d="M 1384.35 96.27 C 1387.52 95.51 1391.35 95.72 1393.37 98.65 C 1395.26 101.55 1395.16 105.81 1393.89 108.93 C 1391.69 114.69 1381.31 114.59 1379.73 108.45 C 1378.59 103.94 1379.21 97.90 1384.35 96.27 Z" fill="#fcde67" />
<path d="M 1451.10 96.14 C 1451.98 95.94 1452.88 95.80 1453.78 95.71 C 1456.11 99.95 1457.67 104.66 1459.52 109.14 C 1461.51 104.80 1463.35 100.39 1465.24 96.00 C 1466.49 96.02 1467.75 96.00 1468.99 95.95 C 1469.20 101.64 1469.11 107.31 1469.10 113.00 L 1466.68 113.01 C 1466.65 108.29 1466.69 103.57 1466.67 98.86 C 1464.37 103.33 1462.93 108.22 1460.52 112.62 L 1458.96 113.40 C 1456.44 109.33 1455.44 104.50 1453.06 100.32 C 1452.63 104.55 1452.74 108.75 1452.76 113.00 C 1451.92 113.00 1451.09 113.00 1450.25 113.00 C 1450.27 108.62 1450.23 104.24 1450.19 99.87 C 1450.34 98.87 1449.82 96.49 1451.10 96.14 Z" fill="#fcde67" />
<path d="M 1484.24 96.00 C 1485.06 96.00 1485.88 96.00 1486.70 95.99 C 1486.72 98.40 1486.83 100.80 1486.92 103.20 C 1489.65 100.52 1491.34 95.99 1495.45 95.66 C 1493.76 98.71 1491.50 101.25 1489.29 103.92 C 1491.54 106.91 1493.83 109.87 1495.95 112.97 C 1495.02 112.99 1494.09 113.01 1493.16 113.03 C 1491.18 110.39 1489.21 107.78 1486.98 105.36 C 1486.83 107.91 1486.72 110.45 1486.70 113.01 C 1485.88 113.00 1485.06 113.00 1484.25 113.00 C 1484.25 107.33 1484.25 101.67 1484.24 96.00 Z" fill="#fcde67" />
<path d="M 1545.34 98.75 C 1547.02 103.59 1541.46 107.57 1538.79 110.90 C 1541.83 111.03 1544.59 110.57 1547.42 112.00 C 1543.70 113.80 1538.76 112.93 1534.75 112.79 C 1536.41 109.81 1538.82 107.57 1540.99 105.00 C 1542.50 103.23 1542.63 101.22 1543.15 99.04 C 1540.43 97.94 1537.99 98.39 1535.17 98.63 C 1537.50 95.21 1543.52 94.59 1545.34 98.75 Z" fill="#fcde67" />
<path d="M 1552.43 96.31 C 1555.42 95.44 1558.66 95.64 1560.10 98.83 C 1561.27 102.15 1561.40 106.73 1560.01 109.99 C 1558.14 114.34 1550.85 114.28 1549.49 109.53 C 1548.50 105.55 1548.07 98.56 1552.43 96.31 Z" fill="#fcde67" />
<path d="M 1573.34 98.75 C 1575.02 103.59 1569.46 107.57 1566.79 110.90 C 1569.82 111.03 1572.59 110.57 1575.42 112.00 C 1571.70 113.80 1566.76 112.93 1562.75 112.79 C 1564.41 109.81 1566.82 107.57 1568.99 105.00 C 1570.50 103.23 1570.63 101.22 1571.15 99.04 C 1568.43 97.94 1565.99 98.39 1563.17 98.63 C 1565.50 95.21 1571.52 94.59 1573.34 98.75 Z" fill="#fcde67" />
<path d="M 1584.81 95.53 C 1585.01 100.50 1584.93 105.49 1584.94 110.47 C 1586.40 111.05 1587.83 111.67 1589.25 112.33 C 1585.52 113.44 1581.27 113.14 1577.45 112.69 C 1578.92 111.59 1580.39 111.00 1582.15 110.50 C 1582.28 106.78 1582.26 103.05 1582.24 99.32 C 1580.69 99.82 1579.12 100.30 1577.53 100.71 C 1579.57 97.72 1581.35 96.57 1584.81 95.53 Z" fill="#fcde67" />
<path d="M 1385.38 98.26 C 1387.87 97.44 1391.06 98.55 1391.72 101.29 C 1392.32 103.71 1392.39 106.83 1391.02 109.02 C 1388.78 112.15 1383.34 111.53 1382.27 107.68 C 1381.55 104.62 1381.65 99.34 1385.38 98.26 Z" fill="#000000" />
<path d="M 1556.85 97.92 C 1558.62 101.52 1558.80 105.75 1557.62 109.55 C 1556.65 111.27 1554.71 110.82 1553.01 111.25 C 1551.44 107.40 1550.87 103.39 1552.30 99.40 C 1553.33 97.49 1555.02 98.18 1556.85 97.92 Z" fill="#000000" />
<path d="M 1310.51 101.58 C 1311.80 104.95 1311.05 109.31 1311.17 112.89 C 1308.55 112.80 1305.90 113.18 1303.31 112.88 C 1300.82 111.40 1300.29 108.56 1302.46 106.54 C 1304.43 105.48 1306.88 105.15 1309.04 104.61 C 1308.64 103.71 1308.24 102.82 1307.84 101.92 C 1305.61 102.20 1303.37 102.39 1301.13 102.64 C 1302.92 99.50 1308.25 98.75 1310.51 101.58 Z" fill="#fcde67" />
<path d="M 1338.31 101.74 C 1339.23 103.20 1339.18 105.31 1339.48 106.98 C 1336.44 107.01 1333.41 107.01 1330.37 107.15 C 1330.98 108.34 1331.45 109.86 1332.46 110.78 C 1334.80 111.13 1337.33 110.65 1339.69 110.58 C 1337.33 113.55 1333.20 113.92 1330.13 111.86 C 1327.74 109.70 1327.74 105.63 1328.91 102.86 C 1330.57 99.36 1335.90 98.86 1338.31 101.74 Z" fill="#fcde67" />
<path d="M 1360.37 100.08 C 1361.16 100.00 1361.96 99.95 1362.76 99.91 C 1363.96 102.98 1364.94 106.13 1366.23 109.17 C 1367.54 106.25 1368.56 103.23 1369.47 100.17 C 1370.37 100.08 1371.27 99.99 1372.17 99.91 C 1370.38 105.16 1368.67 110.46 1366.71 115.64 C 1366.09 117.42 1365.42 117.85 1363.70 118.55 C 1363.99 116.71 1364.48 114.89 1364.65 113.04 C 1363.76 108.62 1361.45 104.49 1360.37 100.08 Z" fill="#fcde67" />
<path d="M 1396.66 99.52 L 1398.69 100.28 C 1400.32 102.94 1400.79 106.35 1402.04 109.23 C 1403.00 106.25 1403.78 103.19 1404.49 100.14 C 1405.28 100.05 1406.07 99.97 1406.85 99.89 C 1407.74 103.31 1408.66 106.72 1409.63 110.11 C 1410.69 106.81 1411.59 103.46 1412.37 100.07 C 1413.24 100.02 1414.10 99.97 1414.97 99.92 C 1413.64 104.30 1412.46 108.72 1411.04 113.07 C 1410.08 113.03 1409.12 112.99 1408.16 112.94 C 1407.34 109.92 1406.51 106.90 1405.56 103.92 C 1404.83 106.89 1404.13 109.88 1403.47 112.87 C 1402.45 113.00 1401.42 113.05 1400.37 113.03 C 1399.01 108.48 1397.50 104.19 1396.66 99.52 Z" fill="#fcde67" />
<path d="M 1426.31 101.74 C 1427.23 103.20 1427.18 105.31 1427.48 106.98 C 1424.44 107.01 1421.41 107.01 1418.37 107.15 C 1418.98 108.34 1419.45 109.86 1420.46 110.78 C 1422.80 111.13 1425.33 110.65 1427.69 110.58 C 1425.33 113.55 1421.20 113.92 1418.14 111.86 C 1415.74 109.70 1415.74 105.63 1416.91 102.86 C 1418.57 99.36 1423.90 98.86 1426.31 101.74 Z" fill="#fcde67" />
<path d="M 1430.03 100.33 C 1432.57 100.24 1435.16 99.92 1437.70 100.06 C 1438.95 100.75 1440.03 101.54 1440.22 103.06 C 1440.62 106.33 1440.37 109.71 1440.37 113.01 L 1437.94 113.00 C 1437.96 109.13 1438.13 105.37 1437.15 101.58 C 1435.62 102.17 1432.90 102.48 1432.58 104.45 C 1432.20 107.27 1432.39 110.18 1432.36 113.01 L 1429.93 113.00 C 1429.96 108.79 1429.73 104.54 1430.03 100.33 Z" fill="#fcde67" />
<path d="M 1482.52 102.47 C 1480.32 102.28 1478.12 102.16 1475.93 101.92 C 1474.38 105.84 1474.43 107.36 1476.02 111.25 C 1478.21 110.76 1480.36 110.13 1482.52 109.55 C 1480.95 111.62 1480.07 113.46 1477.05 113.07 C 1472.37 113.06 1471.21 107.10 1472.58 103.55 C 1473.95 99.11 1480.17 98.54 1482.52 102.47 Z" fill="#fcde67" />
<path d="M 1506.51 101.58 C 1507.80 104.95 1507.05 109.31 1507.17 112.89 C 1504.55 112.80 1501.90 113.18 1499.31 112.88 C 1496.82 111.40 1496.29 108.56 1498.46 106.54 C 1500.43 105.48 1502.87 105.15 1505.04 104.61 C 1504.64 103.71 1504.24 102.82 1503.84 101.92 C 1501.61 102.20 1499.37 102.39 1497.13 102.64 C 1498.92 99.50 1504.25 98.75 1506.51 101.58 Z" fill="#fcde67" />
<path d="M 1509.37 100.08 C 1510.16 100.00 1510.96 99.95 1511.76 99.91 C 1512.96 102.98 1513.94 106.13 1515.23 109.17 C 1516.54 106.25 1517.56 103.23 1518.47 100.16 C 1519.37 100.08 1520.27 99.99 1521.17 99.91 C 1519.38 105.16 1517.67 110.46 1515.71 115.64 C 1515.09 117.42 1514.42 117.85 1512.70 118.55 C 1512.99 116.71 1513.48 114.89 1513.65 113.04 C 1512.76 108.62 1510.45 104.49 1509.37 100.08 Z" fill="#fcde67" />
<path d="M 1318.35 102.05 C 1320.25 101.80 1321.23 102.14 1322.57 103.51 C 1323.14 105.31 1323.13 107.68 1322.58 109.49 C 1321.17 110.97 1318.33 112.07 1317.30 109.61 C 1316.35 107.28 1316.38 103.89 1318.35 102.05 Z" fill="#000000" />
<path d="M 1332.44 102.15 C 1333.51 101.97 1334.59 101.86 1335.68 101.83 C 1336.22 102.90 1336.72 103.99 1337.17 105.10 C 1334.93 105.12 1332.69 105.09 1330.45 105.01 C 1331.06 104.01 1331.73 103.06 1332.44 102.15 Z" fill="#000000" />
<path d="M 1352.38 102.15 C 1358.34 99.84 1358.01 113.04 1352.37 110.82 C 1349.46 109.10 1349.56 103.93 1352.38 102.15 Z" fill="#000000" />
<path d="M 1420.44 102.15 C 1421.51 101.97 1422.58 101.86 1423.68 101.83 C 1424.22 102.90 1424.72 103.99 1425.17 105.10 C 1422.93 105.12 1420.69 105.09 1418.45 105.01 C 1419.06 104.01 1419.73 103.06 1420.44 102.15 Z" fill="#000000" />
<path d="M 1309.21 106.94 C 1308.97 107.82 1308.70 108.69 1308.41 109.55 C 1307.88 111.63 1305.44 110.79 1303.84 111.11 C 1303.82 110.12 1303.85 109.13 1303.92 108.14 C 1305.53 106.81 1307.26 107.17 1309.21 106.94 Z" fill="#000000" />
<path d="M 1505.21 106.94 C 1504.97 107.82 1504.70 108.69 1504.41 109.55 C 1503.88 111.63 1501.44 110.79 1499.83 111.11 C 1499.82 110.12 1499.85 109.13 1499.92 108.14 C 1501.53 106.80 1503.26 107.17 1505.21 106.94 Z" fill="#000000" />
<path d="M 1523.96 110.18 L 1526.36 109.67 C 1525.82 113.43 1525.03 115.39 1521.86 117.60 C 1522.39 115.12 1522.86 112.48 1523.96 110.18 Z" fill="#fcde67" />
<path d="M 1594.81 109.62 C 1594.87 110.78 1594.94 111.93 1595.00 113.09 C 1593.88 113.02 1592.75 112.94 1591.63 112.87 C 1592.26 110.22 1592.12 110.23 1594.81 109.62 Z" fill="#fcde67" />
<path d="M 0.00 176.99 C 7.00 176.92 14.00 177.25 21.00 177.15 C 495.00 177.14 969.00 177.15 1443.00 177.15 C 1446.55 177.21 1450.19 176.89 1453.72 177.32 C 1454.47 177.85 1455.21 178.41 1455.92 179.00 L 0.00 179.00 L 0.00 176.99 Z" fill="#fcde67" />
<path d="M 1461.23 177.35 C 1465.10 176.86 1469.10 177.23 1473.00 177.15 C 1953.33 177.15 2433.67 177.15 2914.00 177.15 L 2914.00 179.00 L 1459.02 179.00 C 1459.74 178.43 1460.48 177.88 1461.23 177.35 Z" fill="#fcde67" />
<path d="M 1458.67 179.00 L 1456.29 179.00 C 1456.02 177.03 1458.91 177.04 1458.67 179.00 Z" fill="#fcde67" />
</svg>