<?xml version="1.0" encoding="UTF-8" standalone="no"?>
<!DOCTYPE svg PUBLIC "-//W3C//DTD SVG 1.1//EN" "http://www.w3.org/Graphics/SVG/1.1/DTD/svg11.dtd">
<svg xmlns="http://www.w3.org/2000/svg" version="1.1" viewBox="0 0 762 110" width="762.0pt" height="110.0pt">
<path d="M 0.00 0.00 L 762.00 0.00 L 762.00 110.00 L 0.00 110.00 L 0.00 0.00 Z" fill="#fcde67" />
<path d="M 345.77 18.00 C 346.52 18.27 347.28 18.55 348.03 18.82 C 348.03 22.51 347.89 26.23 348.10 29.90 L 347.02 30.29 C 346.91 34.25 347.17 38.22 346.94 42.18 C 345.36 42.79 342.91 42.85 341.60 41.61 C 341.10 38.18 341.20 34.66 341.01 31.20 C 342.67 30.01 342.78 27.02 340.95 25.93 C 340.69 23.66 340.52 21.38 340.32 19.10 C 341.92 17.38 343.67 18.17 345.77 18.00 Z" fill="#ed1c24" />
<path d="M 345.77 18.00 C 347.34 17.98 349.21 17.76 349.01 19.96 C 348.98 23.41 349.21 26.56 348.10 29.90 C 347.89 26.23 348.03 22.51 348.03 18.82 C 347.28 18.55 346.52 18.27 345.77 18.00 Z" fill="#678550" />
<path d="M 556.37 18.25 L 557.12 18.47 L 555.83 18.82 L 556.37 18.25 Z" fill="#9f7c19" />
<path d="M 557.12 18.47 C 558.06 18.48 558.99 18.48 559.92 18.47 L 561.27 18.80 L 561.99 19.81 C 562.03 28.29 562.00 36.77 562.00 45.24 L 563.17 44.42 C 564.98 42.39 567.29 40.71 569.76 39.58 L 570.57 39.68 L 571.05 39.03 C 574.86 37.39 579.54 37.71 583.32 39.29 L 583.70 39.46 L 584.50 39.92 C 586.13 41.93 587.95 43.78 590.01 45.36 L 590.11 45.58 C 590.63 48.65 591.84 51.53 592.31 54.63 L 593.14 55.41 L 593.21 55.61 C 592.74 58.95 593.17 62.42 592.95 65.79 C 592.17 70.12 590.77 74.12 588.91 78.09 C 587.65 79.98 586.09 81.27 584.08 82.29 L 583.37 82.37 L 582.95 82.94 C 581.64 83.52 580.53 84.09 579.06 84.09 C 578.00 83.82 577.21 83.97 576.69 84.55 C 575.90 84.54 575.10 84.54 574.30 84.55 C 573.78 83.98 572.98 83.81 571.90 84.07 L 570.96 83.95 L 569.88 83.36 L 568.37 82.99 C 568.00 82.01 567.08 81.35 565.60 81.01 C 564.44 79.96 563.34 78.87 562.27 77.72 L 562.13 77.58 L 561.09 76.86 C 560.92 78.83 561.06 80.80 560.96 82.78 C 560.33 83.20 559.69 83.61 559.05 84.00 L 557.15 84.00 C 556.97 82.84 556.25 82.62 555.00 83.34 C 555.01 61.92 554.99 40.51 555.00 19.09 L 555.83 18.82 L 557.12 18.47 Z" fill="#3f48cc" />
<path d="M 559.92 18.47 L 560.69 18.20 L 561.27 18.80 L 559.92 18.47 Z" fill="#7e7d20" />
<path d="M 555.00 19.09 C 554.99 40.51 555.01 61.92 555.00 83.34 C 554.20 82.66 553.87 81.89 554.00 81.03 C 554.00 61.68 554.00 42.33 554.00 22.98 C 554.15 21.76 553.53 19.64 555.00 19.09 Z" fill="#e69e1a" />
<path d="M 561.27 18.80 L 562.00 19.06 L 561.99 19.81 L 561.27 18.80 Z" fill="#0c12a4" />
<path d="M 562.00 19.06 L 562.82 19.35 C 563.34 27.61 562.66 36.15 563.17 44.42 L 562.00 45.24 C 562.00 36.77 562.03 28.29 561.99 19.81 L 562.00 19.06 Z" fill="#60853d" />
<path d="M 650.87 22.16 C 651.60 24.48 652.21 28.30 649.96 29.95 C 651.13 27.26 651.64 24.66 649.89 22.09 C 647.93 21.60 645.83 21.74 643.78 21.69 C 645.82 20.47 648.95 20.81 650.87 22.16 Z" fill="#5d6a7a" />
<path d="M 58.88 23.26 L 59.33 23.86 L 60.09 23.89 L 61.06 24.10 L 61.95 24.63 C 65.20 26.04 68.11 28.52 70.10 31.45 C 71.02 34.16 72.00 37.36 73.88 39.57 L 73.91 39.71 C 73.77 42.58 74.50 45.25 74.98 48.05 C 75.02 50.96 75.01 53.90 74.98 56.81 C 74.40 61.44 73.22 65.86 72.08 70.36 C 70.45 73.83 68.18 76.82 65.19 79.22 C 59.21 83.91 50.88 85.13 43.52 84.22 C 37.03 83.73 30.77 80.79 26.92 75.42 C 27.27 74.03 26.65 73.07 25.05 72.55 C 24.23 70.75 23.47 68.95 22.89 67.06 L 22.97 66.23 C 23.37 64.32 23.05 63.22 22.01 62.92 L 21.99 62.48 C 22.04 57.97 21.48 53.52 21.94 49.00 C 21.67 45.04 23.53 41.20 24.00 37.49 L 24.08 37.02 L 24.84 36.72 L 24.94 35.95 L 25.05 35.12 L 25.79 34.76 L 25.80 33.94 C 27.86 30.52 30.36 27.75 33.88 25.81 L 34.69 25.82 L 35.06 25.09 C 42.37 21.33 51.05 21.25 58.88 23.26 Z" fill="#3f48cc" />
<path d="M 422.62 22.43 C 426.45 23.78 424.60 28.02 426.99 30.50 L 427.01 30.58 C 426.84 32.37 427.10 33.60 427.74 35.23 C 430.63 46.00 433.52 56.78 436.36 67.58 L 437.01 68.19 C 437.04 69.41 436.35 71.75 437.98 72.12 L 438.06 72.87 C 437.80 74.17 438.01 74.88 438.69 75.00 C 439.37 74.51 439.72 73.92 439.76 73.21 L 439.99 71.90 L 440.68 71.83 L 440.76 71.22 L 440.11 71.00 L 440.23 69.97 L 440.69 68.96 L 440.96 67.87 L 441.66 67.83 L 441.75 67.23 L 441.16 66.97 L 441.35 65.88 L 441.54 65.13 C 444.42 53.80 447.43 42.45 450.16 31.09 L 450.60 29.79 L 450.99 28.92 L 451.75 28.84 L 451.79 28.16 L 451.05 28.00 L 451.08 27.10 L 451.65 25.86 C 451.84 24.97 452.05 24.07 452.26 23.18 C 454.01 22.33 455.73 22.50 457.60 22.43 C 458.38 23.14 459.97 23.99 461.01 24.17 L 461.01 24.41 C 460.73 27.90 462.73 31.24 463.28 34.71 L 464.00 35.68 L 464.03 35.82 C 463.81 37.45 463.49 38.79 464.87 40.00 C 465.15 43.07 466.80 45.89 467.05 48.92 C 466.77 49.83 467.04 50.51 467.84 50.94 C 468.15 54.04 469.80 56.89 470.05 59.95 C 469.77 60.86 470.04 61.52 470.85 61.95 C 471.27 65.29 472.82 68.36 473.22 71.72 L 474.00 72.68 L 474.00 72.88 C 473.84 73.91 473.95 74.82 474.33 75.61 C 475.96 77.00 475.62 73.63 475.83 72.86 C 475.93 71.87 476.07 70.89 476.25 69.91 L 476.61 69.06 C 477.65 64.37 479.21 59.79 480.19 55.10 L 480.67 53.82 L 480.98 52.90 L 481.71 52.83 L 481.77 52.19 L 481.07 52.00 L 481.13 51.06 L 481.76 49.90 L 481.97 48.92 L 482.66 48.83 L 482.71 48.22 L 482.05 48.04 C 483.08 44.06 484.30 40.10 485.16 36.09 L 485.61 34.80 L 485.98 33.91 L 486.75 33.86 L 486.82 33.18 L 486.08 32.99 L 486.16 32.06 L 486.69 30.86 L 486.94 29.85 L 487.69 29.86 L 487.80 29.21 L 487.16 28.96 L 487.37 27.85 L 487.54 27.15 C 487.83 25.94 488.15 24.73 488.51 23.54 L 489.77 22.61 L 490.49 22.91 L 491.14 22.49 C 493.26 22.57 495.36 21.85 496.82 23.90 L 496.01 25.94 L 495.21 26.14 L 495.02 28.20 L 495.04 29.18 L 495.01 29.64 C 493.60 29.90 493.98 32.32 493.15 33.31 C 492.83 34.25 492.77 35.27 492.99 36.37 L 493.00 36.67 C 491.60 36.91 491.97 39.33 491.15 40.31 C 490.82 41.25 490.77 42.27 490.99 43.37 L 491.00 43.68 C 489.60 43.91 489.97 46.33 489.15 47.31 C 488.82 48.25 488.77 49.27 488.99 50.37 L 489.00 50.67 C 487.60 50.90 487.96 53.33 487.15 54.31 C 486.82 55.23 486.77 56.23 487.01 57.31 L 487.00 57.37 L 486.28 58.24 C 484.17 66.05 481.40 73.85 479.83 81.75 C 478.71 82.93 477.27 83.34 475.84 84.00 C 474.96 84.00 474.07 84.00 473.19 84.00 C 471.25 82.77 469.71 81.35 468.19 79.63 L 468.08 79.02 L 468.78 78.80 L 468.67 78.17 L 467.93 78.17 C 467.04 75.55 466.22 72.81 465.72 70.08 L 465.24 68.93 C 464.68 66.26 463.72 63.68 463.13 61.00 L 463.82 60.76 L 463.69 60.11 L 462.94 60.13 L 462.70 59.15 L 462.13 57.91 C 461.75 55.22 460.63 52.68 460.10 50.01 L 460.79 49.79 L 460.68 49.15 L 459.94 49.13 L 459.59 48.20 C 460.80 46.17 460.09 43.07 458.00 41.92 L 457.61 41.12 L 457.10 39.91 L 457.05 38.96 L 457.80 38.82 L 457.76 38.14 L 457.01 38.02 C 456.82 37.34 456.61 36.67 456.39 36.00 C 454.52 35.48 455.09 38.91 455.00 39.96 C 454.02 40.16 453.70 41.34 454.01 43.51 L 454.01 43.93 C 452.95 43.86 452.65 44.43 453.12 45.65 C 452.75 47.62 451.63 49.10 451.71 51.18 C 450.59 52.30 450.68 53.82 451.12 55.24 C 449.25 55.65 449.99 57.99 450.02 59.35 L 449.99 59.68 C 449.05 60.21 448.72 61.44 449.01 63.36 L 449.00 63.69 C 448.03 64.13 447.70 65.32 448.02 67.25 L 447.99 67.72 C 447.03 68.25 446.71 69.41 447.02 71.21 L 447.00 71.34 C 445.12 74.60 444.74 79.02 443.67 82.66 C 442.68 83.13 441.67 83.58 440.66 84.00 C 439.56 84.00 438.46 84.00 437.36 84.00 C 434.62 82.79 433.88 80.86 432.24 78.60 L 432.21 78.45 C 432.73 76.14 432.07 73.24 430.25 71.62 L 430.21 71.46 C 430.73 69.06 430.02 66.18 428.19 64.48 C 425.49 55.01 422.74 45.51 420.10 36.02 L 420.80 35.79 L 420.68 35.15 L 419.93 35.16 L 419.69 34.28 C 420.64 32.47 420.34 31.40 418.77 31.08 C 418.50 30.40 418.29 29.72 418.12 29.02 L 418.81 28.77 L 418.67 28.14 L 417.92 28.18 C 417.50 27.20 417.21 26.21 417.05 25.19 C 417.99 24.83 418.25 24.04 417.81 22.83 C 419.23 22.17 421.08 22.61 422.62 22.43 Z" fill="#ed1c24" />
<path d="M 422.62 22.43 L 423.73 22.19 C 424.58 22.74 425.32 23.39 425.96 24.14 C 425.53 26.84 427.51 27.87 426.99 30.50 C 424.60 28.02 426.45 23.78 422.62 22.43 Z" fill="#84513a" />
<path d="M 457.60 22.43 C 458.54 21.74 459.69 22.02 461.05 23.29 L 461.01 24.17 C 459.97 23.99 458.38 23.14 457.60 22.43 Z" fill="#895a3a" />
<path d="M 490.41 22.10 L 491.14 22.49 L 490.49 22.91 L 489.77 22.61 L 490.41 22.10 Z" fill="#708532" />
<path d="M 643.78 21.69 C 645.83 21.74 647.93 21.60 649.89 22.09 C 651.64 24.66 651.13 27.26 649.96 29.95 C 647.56 30.73 645.74 30.72 643.33 29.97 C 643.54 28.81 643.08 27.83 641.97 27.02 C 642.20 24.71 641.19 22.89 643.78 21.69 Z" fill="#3f48cc" />
<path d="M 58.88 23.26 L 59.67 23.21 L 60.09 23.89 L 59.33 23.86 L 58.88 23.26 Z" fill="#817a26" />
<path d="M 417.81 22.83 C 418.25 24.04 417.99 24.83 417.05 25.19 C 416.73 23.75 416.98 22.96 417.81 22.83 Z" fill="#870003" />
<path d="M 61.06 24.10 L 61.95 24.63 L 61.06 24.10 Z" fill="#646256" />
<path d="M 34.27 25.11 L 35.06 25.09 L 34.69 25.82 L 33.88 25.81 L 34.27 25.11 Z" fill="#823d2c" />
<path d="M 461.01 24.41 C 462.38 25.90 461.69 27.61 462.74 29.27 C 462.82 31.78 464.48 33.12 464.00 35.68 L 463.28 34.71 C 462.73 31.24 460.73 27.90 461.01 24.41 Z" fill="#74553f" />
<path d="M 340.95 25.93 C 342.78 27.02 342.67 30.01 341.01 31.20 C 340.99 29.45 340.97 27.69 340.95 25.93 Z" fill="#970409" />
<path d="M 451.05 26.33 L 451.65 25.86 L 451.08 27.10 L 451.05 26.33 Z" fill="#845e15" />
<path d="M 495.21 26.14 L 496.01 25.94 L 495.78 28.04 L 495.02 28.20 L 495.21 26.14 Z" fill="#6e262f" />
<path d="M 487.54 27.15 L 487.37 27.85 L 487.54 27.15 Z" fill="#9f781f" />
<path d="M 641.97 27.02 C 643.08 27.83 643.54 28.81 643.33 29.97 C 642.11 29.66 641.66 28.67 641.97 27.02 Z" fill="#744a5d" />
<path d="M 668.42 27.25 L 669.04 27.46 L 667.93 27.69 L 668.42 27.25 Z" fill="#94692a" />
<path d="M 669.04 27.46 C 670.12 27.47 671.20 27.47 672.28 27.47 L 672.77 27.57 L 673.93 28.08 C 675.11 31.15 674.18 35.59 674.40 38.97 C 678.22 39.03 682.04 38.98 685.86 39.00 C 687.50 40.46 687.72 45.02 685.11 45.51 C 681.61 45.62 678.10 45.41 674.61 45.58 C 674.22 49.00 674.58 52.56 674.46 56.00 C 674.59 61.93 674.11 67.91 674.88 73.77 C 672.72 74.36 674.82 76.26 676.05 76.44 C 679.26 78.67 681.56 78.20 684.95 76.68 C 686.16 78.46 685.49 80.42 686.38 82.26 L 685.22 83.26 C 683.99 82.64 683.19 82.88 682.84 83.97 C 678.33 85.41 671.51 84.47 668.73 80.13 L 668.75 79.33 L 668.04 78.96 L 668.00 78.60 C 668.15 76.88 667.01 75.50 667.00 73.86 C 666.96 64.31 667.07 54.75 666.95 45.21 C 664.63 45.08 662.33 45.23 660.01 45.00 C 659.23 42.96 659.42 41.03 660.12 39.00 C 662.08 38.99 664.04 39.01 666.00 39.00 L 667.00 39.00 C 666.99 35.35 666.98 31.70 667.00 28.05 L 667.93 27.69 L 669.04 27.46 Z" fill="#22b14c" />
<path d="M 672.28 27.47 L 672.77 27.57 L 672.28 27.47 Z" fill="#967638" />
<path d="M 50.17 28.99 C 48.74 29.03 47.31 29.02 45.88 28.97 C 46.82 27.63 49.63 27.08 50.17 28.99 Z" fill="#1f2471" />
<path d="M 417.92 28.18 L 418.67 28.14 L 418.81 28.77 L 418.12 29.02 L 417.92 28.18 Z" fill="#840002" />
<path d="M 451.05 28.00 L 451.79 28.16 L 451.75 28.84 L 450.99 28.92 L 451.05 28.00 Z" fill="#770004" />
<path d="M 495.02 28.20 L 495.78 28.04 L 495.82 28.91 L 495.04 29.18 L 495.02 28.20 Z" fill="#398552" />
<path d="M 666.12 28.42 L 667.00 28.05 C 666.98 31.70 666.99 35.35 667.00 39.00 L 666.00 39.00 C 666.08 35.49 665.84 31.91 666.12 28.42 Z" fill="#bd5a18" />
<path d="M 45.88 28.97 C 47.31 29.02 48.74 29.03 50.17 28.99 C 54.64 28.97 59.31 31.00 62.09 34.57 C 61.79 36.02 62.42 36.96 63.98 37.40 L 64.08 37.94 L 64.87 39.06 C 65.91 41.81 66.31 44.59 66.77 47.48 C 65.61 48.76 65.16 51.06 67.00 51.97 L 66.89 54.07 C 65.56 55.22 65.13 57.39 66.81 58.41 C 66.36 61.33 65.76 64.05 64.88 66.87 L 64.12 67.23 L 64.05 68.06 L 63.99 68.49 C 62.44 69.11 61.79 70.11 62.05 71.48 C 61.21 72.38 60.36 73.25 59.43 74.06 C 58.03 73.69 57.08 74.31 56.57 75.92 C 55.32 76.31 54.17 76.88 52.89 77.06 L 51.95 77.20 C 49.31 77.66 46.67 77.61 44.02 77.15 L 43.09 77.03 L 42.10 76.89 L 41.65 76.21 L 40.84 76.31 C 39.70 75.94 38.62 75.39 37.60 74.68 L 37.29 74.47 C 36.04 73.63 35.13 72.52 34.13 71.42 C 32.70 68.91 31.54 66.38 30.84 63.58 L 30.82 63.45 C 29.59 58.33 30.05 53.22 30.01 48.00 C 30.05 46.47 30.83 45.09 30.82 43.54 L 30.84 43.46 C 31.60 40.22 33.12 37.38 34.95 34.64 C 35.68 33.87 36.45 33.15 37.26 32.47 L 37.55 32.26 C 40.04 30.42 42.81 29.34 45.88 28.97 Z" fill="#fcde67" />
<path d="M 487.16 28.96 L 487.80 29.21 L 487.69 29.86 L 486.94 29.85 L 487.16 28.96 Z" fill="#840002" />
<path d="M 347.02 30.29 L 348.10 29.90 C 348.13 33.86 347.66 37.86 347.94 41.79 L 346.94 42.18 C 347.17 38.22 346.91 34.25 347.02 30.29 Z" fill="#602c31" />
<path d="M 450.05 30.32 L 450.60 29.79 L 450.16 31.09 L 450.05 30.32 Z" fill="#856015" />
<path d="M 495.01 29.64 C 495.37 31.53 494.35 32.51 494.10 34.22 C 494.13 35.55 493.76 36.26 492.99 36.37 C 492.77 35.27 492.83 34.25 493.15 33.31 C 493.98 32.32 493.60 29.90 495.01 29.64 Z" fill="#7a4d3e" />
<path d="M 418.77 31.08 C 420.34 31.40 420.64 32.47 419.69 34.28 C 419.12 33.38 418.82 32.31 418.77 31.08 Z" fill="#bf2c13" />
<path d="M 427.01 30.58 C 428.30 31.81 427.73 33.10 428.38 34.51 C 428.89 35.50 429.12 36.59 429.08 37.79 C 430.08 39.11 429.97 40.14 430.16 41.69 C 430.84 42.65 431.14 43.72 431.05 44.92 C 432.47 48.95 433.69 54.76 435.00 59.00 C 435.42 62.00 437.13 65.12 437.01 68.19 L 436.36 67.58 C 433.52 56.78 430.63 46.00 427.74 35.23 C 427.10 33.60 426.84 32.37 427.01 30.58 Z" fill="#7a4c3b" />
<path d="M 486.14 31.34 L 486.69 30.86 L 486.16 32.06 L 486.14 31.34 Z" fill="#916f1a" />
<path d="M 37.55 32.26 L 37.26 32.47 L 37.55 32.26 Z" fill="#a6b940" />
<path d="M 70.10 31.45 C 72.01 33.57 73.26 36.81 73.88 39.57 C 72.00 37.36 71.02 34.16 70.10 31.45 Z" fill="#385088" />
<path d="M 486.08 32.99 L 486.82 33.18 L 486.75 33.86 L 485.98 33.91 L 486.08 32.99 Z" fill="#750003" />
<path d="M 25.80 33.94 L 25.79 34.76 L 25.05 35.12 L 25.80 33.94 Z" fill="#9d582d" />
<path d="M 34.95 34.64 C 33.12 37.38 31.60 40.22 30.84 43.46 C 29.98 40.64 32.38 36.00 34.95 34.64 Z" fill="#3b5183" />
<path d="M 62.09 34.57 C 63.18 35.23 63.81 36.17 63.98 37.40 C 62.42 36.96 61.79 36.02 62.09 34.57 Z" fill="#d5a23a" />
<path d="M 419.93 35.16 L 420.68 35.15 L 420.80 35.79 L 420.10 36.02 L 419.93 35.16 Z" fill="#850003" />
<path d="M 485.05 35.32 L 485.61 34.80 L 485.16 36.09 L 485.05 35.32 Z" fill="#856015" />
<path d="M 24.19 36.26 L 24.94 35.95 L 24.84 36.72 L 24.08 37.02 L 24.19 36.26 Z" fill="#9e592e" />
<path d="M 456.39 36.00 C 456.34 37.26 456.27 39.32 455.00 39.96 C 455.09 38.91 454.52 35.48 456.39 36.00 Z" fill="#5e6046" />
<path d="M 464.03 35.82 C 464.90 36.45 465.28 37.58 465.16 39.22 L 464.87 40.00 C 463.49 38.79 463.81 37.45 464.03 35.82 Z" fill="#6d4137" />
<path d="M 493.00 36.67 C 493.38 38.55 492.35 39.52 492.10 41.22 C 492.13 42.55 491.76 43.27 490.99 43.37 C 490.77 42.27 490.82 41.25 491.15 40.31 C 491.97 39.33 491.60 36.91 493.00 36.67 Z" fill="#7a4d3e" />
<path d="M 24.00 37.49 C 23.53 41.20 21.67 45.04 21.94 49.00 C 21.48 53.52 22.04 57.97 21.99 62.48 C 20.06 58.24 21.37 52.54 21.04 47.92 C 22.36 44.29 21.77 41.04 24.00 37.49 Z" fill="#915d4b" />
<path d="M 64.08 37.94 L 64.80 38.26 L 64.87 39.06 L 64.08 37.94 Z" fill="#9e5a2e" />
<path d="M 89.12 38.49 L 87.96 38.65 L 89.12 38.49 Z" fill="#8c9140" />
<path d="M 89.12 38.49 C 90.04 38.48 90.96 38.48 91.87 38.47 L 92.53 38.96 L 93.29 38.66 C 94.91 39.70 93.70 43.58 94.00 45.31 L 94.01 46.27 C 96.25 44.99 97.85 43.09 99.22 40.94 C 101.91 38.92 105.32 37.70 108.70 38.01 C 111.38 39.22 114.10 39.62 116.56 41.40 C 117.74 42.45 118.83 43.60 119.99 44.66 L 120.07 45.07 L 120.19 46.09 L 121.03 46.00 C 122.47 44.53 123.89 43.06 125.53 41.80 C 128.70 41.00 131.52 39.56 134.38 38.00 L 135.65 38.00 C 137.20 38.90 138.86 38.91 140.55 39.31 C 141.99 39.95 143.02 41.00 144.63 41.14 C 145.01 41.53 145.40 41.92 145.81 42.29 C 145.89 44.24 147.73 45.30 147.94 47.16 C 148.14 48.93 149.15 50.21 149.00 51.96 C 149.00 62.27 149.03 72.59 149.00 82.89 C 148.33 83.27 147.66 83.64 146.99 84.00 L 145.14 84.00 C 144.51 83.55 143.89 83.09 143.26 82.63 L 143.02 81.97 C 142.96 73.04 143.04 64.10 142.98 55.17 L 141.94 53.68 C 141.03 49.82 140.13 46.81 136.29 44.95 C 134.94 42.79 130.59 43.15 129.80 45.78 L 129.42 45.97 C 127.17 46.85 124.70 49.31 123.58 51.40 L 123.11 51.72 L 122.16 52.37 C 121.85 62.52 121.99 73.15 122.08 83.34 L 121.25 82.89 L 120.24 83.18 L 119.90 83.99 C 118.90 84.00 117.91 84.00 116.91 84.00 L 116.79 83.25 L 116.10 83.24 L 116.00 84.00 C 115.38 83.77 114.87 83.33 114.46 82.67 C 114.52 74.44 114.46 66.23 114.50 58.00 C 114.49 54.14 114.27 50.49 112.01 47.21 C 111.29 44.01 105.96 42.99 103.69 45.04 C 102.56 45.69 101.45 46.35 100.35 47.03 C 98.41 46.50 95.55 49.38 96.02 51.31 L 95.98 51.34 C 95.19 51.77 94.54 52.36 94.02 53.11 C 93.96 63.01 94.03 72.92 93.99 82.83 C 93.27 83.23 92.54 83.62 91.81 84.00 L 90.11 84.00 C 89.00 83.06 87.84 82.73 87.97 81.02 C 87.94 66.91 88.00 52.76 87.96 38.65 L 89.12 38.49 Z" fill="#ed1c24" />
<path d="M 91.87 38.47 L 92.64 38.06 L 93.29 38.66 L 92.53 38.96 L 91.87 38.47 Z" fill="#5d7138" />
<path d="M 108.70 38.01 C 112.59 37.70 119.10 40.59 119.99 44.66 C 118.83 43.60 117.74 42.45 116.56 41.40 C 114.10 39.62 111.38 39.22 108.70 38.01 Z" fill="#ab322d" />
<path d="M 134.38 38.00 C 131.52 39.56 128.70 41.00 125.53 41.80 C 127.92 39.79 131.23 38.05 134.38 38.00 Z" fill="#c12d1e" />
<path d="M 135.65 38.00 C 138.49 37.89 142.85 38.67 144.63 41.14 C 143.02 41.00 141.99 39.95 140.55 39.31 C 138.86 38.91 137.20 38.90 135.65 38.00 Z" fill="#a03e2f" />
<path d="M 170.94 39.19 C 170.99 41.25 170.91 43.29 170.92 45.34 C 173.54 42.58 176.30 40.33 179.82 38.80 C 181.32 39.41 183.32 39.86 184.09 38.00 L 185.98 38.00 C 187.04 39.80 188.54 39.61 190.18 38.71 C 193.00 39.14 194.67 40.93 196.53 42.89 L 197.08 43.53 C 197.57 44.23 197.98 44.98 198.33 45.78 C 197.33 47.51 197.95 50.56 200.00 51.18 L 199.99 52.33 C 199.45 53.19 199.13 54.07 199.02 54.98 C 198.94 64.26 199.08 73.54 198.95 82.81 C 198.28 83.22 197.60 83.61 196.91 84.00 C 195.70 83.89 193.87 84.34 192.88 83.55 C 193.13 75.04 192.92 66.51 193.00 58.00 C 192.92 55.98 193.35 54.22 192.00 52.51 L 191.96 52.05 C 192.18 50.89 191.88 50.11 191.07 49.69 C 189.07 44.90 184.94 44.23 180.24 45.16 L 179.28 44.88 L 178.35 45.36 L 178.22 46.27 C 177.57 46.89 176.91 47.49 176.21 48.06 C 174.36 47.75 173.58 48.45 173.87 50.16 C 173.34 50.96 172.72 51.65 172.01 52.25 L 171.05 53.10 C 170.94 62.40 171.02 71.72 171.01 81.02 C 171.23 82.73 170.14 83.06 169.04 84.00 C 168.06 84.00 167.08 84.00 166.10 84.00 C 165.74 82.89 165.00 82.64 163.89 83.25 C 164.14 68.53 163.93 53.76 164.00 39.04 C 165.99 38.21 169.05 38.02 170.94 39.19 Z" fill="#22b14c" />
<path d="M 184.09 38.00 C 183.32 39.86 181.32 39.41 179.82 38.80 C 181.15 38.03 182.59 37.87 184.09 38.00 Z" fill="#678233" />
<path d="M 185.98 38.00 C 187.48 37.96 188.86 37.86 190.18 38.71 C 188.54 39.61 187.04 39.80 185.98 38.00 Z" fill="#40893d" />
<path d="M 233.92 38.00 C 234.97 39.98 237.49 39.23 239.24 38.86 L 240.95 39.06 L 242.01 39.77 L 242.47 39.88 C 245.06 42.12 247.66 44.15 250.04 46.68 L 250.12 46.95 L 250.20 47.77 L 250.97 48.08 L 251.00 48.42 C 250.78 50.40 252.16 51.98 252.18 53.99 C 253.93 60.02 252.96 65.99 251.03 71.85 C 250.70 73.66 249.00 74.84 248.92 76.66 C 247.60 78.55 246.02 79.97 244.09 81.21 L 243.25 81.22 L 242.84 81.97 C 238.91 84.18 234.68 84.61 230.25 84.55 C 229.75 83.91 228.94 83.78 227.83 84.18 C 225.64 84.10 223.75 83.40 221.74 82.60 L 221.35 82.42 C 218.58 80.85 216.09 79.04 214.66 76.09 L 214.00 75.03 L 213.51 74.17 L 213.07 73.02 C 212.68 72.03 212.36 71.03 212.11 70.01 L 212.76 69.77 L 212.64 69.18 L 211.95 69.17 C 210.29 62.17 210.97 53.85 214.46 47.47 C 218.51 40.57 226.11 37.42 233.92 38.00 Z" fill="#ed1c24" />
<path d="M 233.92 38.00 C 235.54 38.02 237.92 37.75 239.24 38.86 C 237.49 39.23 234.97 39.98 233.92 38.00 Z" fill="#a33c2b" />
<path d="M 295.34 41.58 L 295.79 42.17 L 296.14 42.76 C 296.09 44.12 296.42 45.23 297.13 46.10 L 298.00 46.05 C 299.76 45.58 301.18 42.95 302.97 41.99 C 307.63 38.15 313.22 36.76 318.96 39.06 L 319.37 39.63 L 320.08 39.71 C 321.62 40.43 322.84 41.47 323.86 42.83 C 324.45 44.95 325.49 47.01 325.86 49.18 C 326.22 50.78 325.56 52.62 327.22 53.54 C 327.50 63.05 327.21 72.64 327.36 82.17 L 327.12 83.04 C 325.83 82.75 325.11 83.07 324.94 84.00 C 324.02 84.00 323.09 84.00 322.16 84.00 L 321.86 83.11 L 320.84 82.92 L 320.00 83.45 C 319.96 73.98 320.08 64.48 319.94 55.02 C 319.34 53.05 319.50 50.01 318.00 48.52 L 318.00 48.21 C 318.14 46.63 317.42 45.87 315.85 45.93 L 315.09 45.84 L 314.77 45.08 L 313.99 45.03 L 313.28 44.97 C 312.58 43.32 309.56 43.35 308.83 44.99 C 308.08 45.45 307.33 45.91 306.58 46.35 L 305.86 46.75 L 305.23 47.09 C 302.90 46.94 300.43 48.99 301.13 51.39 L 300.13 52.28 L 299.08 53.20 C 298.80 62.99 299.24 72.96 298.86 82.73 C 298.21 83.16 297.55 83.59 296.89 84.00 L 295.03 84.00 C 294.36 83.59 293.68 83.18 293.01 82.75 C 292.98 73.83 293.00 64.90 293.00 55.97 C 293.13 54.87 292.79 53.95 292.00 53.21 L 291.97 52.42 C 292.19 51.30 291.90 50.43 291.11 49.83 C 290.09 47.27 288.86 45.97 286.29 44.94 C 285.39 43.23 282.79 43.50 281.75 44.93 C 280.94 45.30 280.13 45.68 279.34 46.08 C 276.21 47.54 274.14 50.39 272.01 52.99 C 272.07 63.10 271.83 73.26 272.14 83.36 L 271.29 82.91 L 270.25 83.17 L 269.89 83.99 C 268.96 84.00 268.03 84.00 267.10 84.00 C 266.75 82.90 266.02 82.66 264.92 83.27 C 265.10 68.54 264.95 53.77 265.00 39.04 C 267.10 38.24 269.80 38.12 271.81 39.22 C 271.87 40.54 271.88 41.87 271.83 43.20 L 271.92 44.98 C 272.88 45.27 274.58 42.80 275.17 42.04 L 275.77 42.00 C 277.15 42.16 278.03 41.50 278.41 40.01 L 278.97 39.88 L 280.05 39.07 C 284.96 37.13 291.52 37.65 295.34 41.58 Z" fill="#3f48cc" />
<path d="M 375.99 38.00 C 377.34 39.95 379.27 39.47 381.22 38.82 C 383.01 39.05 385.69 39.91 386.47 41.70 C 385.67 43.18 385.65 44.71 386.40 46.29 L 385.86 46.99 C 384.23 47.17 382.64 45.36 380.94 45.08 C 376.64 43.47 370.83 43.05 368.02 47.44 C 365.53 50.49 367.41 55.26 371.39 55.80 C 375.58 57.84 380.77 59.06 384.44 61.91 L 385.12 62.52 L 386.11 63.50 C 386.90 65.87 387.62 68.40 388.94 70.54 L 388.96 71.78 C 387.55 72.02 386.42 75.47 387.79 76.34 C 387.47 77.04 387.13 77.73 386.76 78.42 L 386.55 78.77 C 385.85 79.83 384.90 80.74 383.71 81.49 L 383.43 81.67 C 382.31 82.33 381.13 82.91 379.90 83.42 L 379.14 83.72 C 373.21 85.16 364.33 84.99 359.72 80.51 C 360.29 79.40 360.05 78.57 358.99 77.99 L 359.00 76.03 C 359.90 75.92 360.28 75.24 360.12 74.00 L 360.96 74.02 L 361.94 74.72 C 364.12 76.18 366.48 77.13 368.94 78.02 C 370.49 79.70 373.78 80.05 375.20 78.05 C 377.19 77.50 378.98 76.77 380.25 75.06 L 380.69 73.98 L 381.00 73.55 C 383.83 71.65 380.18 66.07 377.46 66.04 C 376.35 65.54 375.23 65.05 374.08 64.64 L 373.61 64.19 L 372.95 64.18 L 371.90 63.77 L 371.12 63.44 C 367.44 62.00 364.09 60.44 361.73 57.13 L 361.73 56.30 L 361.01 55.90 L 360.92 55.21 C 361.42 53.26 361.11 52.14 360.00 51.86 L 359.96 50.02 C 361.55 48.89 361.34 47.50 360.91 45.80 L 361.00 45.41 C 362.58 45.04 363.21 44.11 362.90 42.60 C 364.09 41.15 365.60 40.33 367.25 39.48 L 367.68 39.29 C 370.47 38.26 373.00 37.78 375.99 38.00 Z" fill="#22b14c" />
<path d="M 375.99 38.00 C 377.45 38.05 380.13 37.81 381.22 38.82 C 379.27 39.47 377.34 39.95 375.99 38.00 Z" fill="#437f3e" />
<path d="M 457.01 38.02 L 457.76 38.14 L 457.80 38.82 L 457.05 38.96 L 457.01 38.02 Z" fill="#770004" />
<path d="M 522.95 38.00 C 521.59 39.94 519.80 39.62 517.86 38.79 C 519.52 37.99 521.13 37.83 522.95 38.00 Z" fill="#5d8b38" />
<path d="M 522.95 38.00 C 523.93 38.00 524.92 38.00 525.90 38.00 C 526.68 39.95 528.62 39.36 530.14 38.76 C 531.54 38.88 532.59 39.43 533.80 40.07 C 534.06 42.28 535.01 43.46 537.37 42.79 L 538.14 43.69 C 537.75 45.23 538.39 46.12 540.07 46.35 C 540.28 46.68 540.47 47.03 540.65 47.38 C 540.34 50.59 541.68 54.52 542.94 57.47 C 542.96 58.62 542.98 59.78 543.00 60.93 C 542.45 61.80 541.78 62.49 540.99 62.99 C 531.32 63.01 521.65 63.00 511.98 63.00 L 510.89 63.00 C 511.80 65.88 511.47 70.78 514.11 72.53 C 516.63 75.83 518.70 77.16 522.77 78.05 C 523.37 79.60 528.70 79.69 529.18 78.03 C 532.11 77.69 535.01 76.81 537.76 75.77 L 539.88 76.23 C 540.07 77.90 540.16 79.57 540.28 81.25 C 535.35 83.98 528.71 84.75 523.14 84.43 L 521.02 84.06 C 518.34 84.27 515.78 83.05 513.38 81.99 C 512.89 80.37 511.98 79.73 510.65 80.07 C 510.07 79.51 509.49 78.95 508.92 78.37 C 509.29 77.03 508.65 76.10 507.02 75.59 L 506.84 75.04 L 506.07 73.96 L 506.00 73.45 C 506.28 71.46 504.84 69.96 504.99 67.98 C 505.02 65.65 505.24 63.76 503.97 61.67 L 503.95 60.99 C 506.04 59.72 505.04 55.81 504.91 53.77 L 504.95 53.39 C 506.50 49.93 507.89 46.83 509.93 43.61 L 510.66 42.94 C 512.07 43.33 512.91 42.67 513.17 40.97 C 514.65 40.06 516.24 39.42 517.86 38.79 C 519.80 39.62 521.59 39.94 522.95 38.00 Z" fill="#22b14c" />
<path d="M 525.90 38.00 C 527.41 37.92 528.82 37.94 530.14 38.76 C 528.62 39.36 526.68 39.95 525.90 38.00 Z" fill="#50863f" />
<path d="M 618.98 38.00 C 620.07 39.56 621.58 39.44 623.24 38.98 L 624.07 38.81 C 625.52 38.97 626.69 39.59 628.00 40.16 L 629.03 40.99 C 629.94 43.30 630.01 44.73 628.97 47.01 C 626.87 47.03 625.34 44.85 623.05 44.89 C 622.68 44.11 621.93 43.82 620.80 44.01 C 616.91 43.86 613.48 43.72 611.01 47.24 C 609.45 48.58 610.14 50.20 610.01 52.00 C 611.11 53.82 612.24 55.39 614.43 55.89 L 615.06 56.11 L 616.06 56.79 L 617.93 57.29 L 618.36 57.82 L 619.06 57.85 L 620.17 58.28 L 620.80 58.53 C 623.89 59.90 626.81 60.86 629.07 63.52 C 631.73 68.19 631.42 72.38 630.19 77.44 C 629.02 79.79 627.31 81.19 624.99 82.34 L 624.01 82.93 L 623.07 83.09 L 622.30 83.15 L 621.89 83.80 C 620.96 83.92 620.03 84.03 619.10 84.12 C 617.98 83.79 617.19 83.95 616.72 84.59 C 612.96 84.45 609.34 84.16 605.84 82.64 L 605.23 82.33 C 604.33 81.88 603.51 81.27 602.76 80.52 C 603.32 79.41 603.06 78.57 602.00 78.01 L 602.00 76.02 C 602.90 75.88 603.26 75.21 603.09 74.01 L 603.93 74.02 L 604.23 74.75 L 604.97 74.86 C 607.18 76.24 609.45 77.26 611.93 78.04 C 613.14 79.51 617.35 80.03 618.20 78.04 C 620.01 77.80 622.24 76.72 623.20 75.11 L 623.92 73.93 L 624.00 73.44 C 626.40 71.48 623.84 69.14 622.86 67.13 C 622.14 66.69 621.36 66.34 620.54 66.07 C 618.66 65.17 616.76 64.37 614.82 63.63 L 614.17 63.38 C 610.53 61.93 607.15 60.39 604.79 57.11 L 604.81 56.25 L 604.02 55.87 L 603.97 55.18 C 604.39 53.25 604.07 52.15 603.00 51.88 L 603.00 50.01 C 604.56 48.84 604.31 47.53 603.94 45.82 L 604.02 45.44 C 605.58 44.95 606.22 44.00 605.96 42.59 L 606.65 41.95 C 608.08 42.21 609.01 41.56 609.44 39.99 L 610.02 39.84 L 611.03 39.13 C 613.70 38.42 616.17 37.75 618.98 38.00 Z" fill="#3f48cc" />
<path d="M 618.98 38.00 C 620.32 37.93 621.67 38.05 623.04 38.34 L 623.24 38.98 C 621.58 39.44 620.07 39.56 618.98 38.00 Z" fill="#42498a" />
<path d="M 623.04 38.34 L 623.73 38.23 L 624.07 38.81 L 623.24 38.98 L 623.04 38.34 Z" fill="#7f7820" />
<path d="M 644.94 38.53 L 644.04 38.69 C 644.16 37.89 644.46 37.84 644.94 38.53 Z" fill="#7f8439" />
<path d="M 648.24 37.99 L 648.94 38.03 L 649.02 38.76 L 648.04 38.62 L 648.24 37.99 Z" fill="#5d8540" />
<path d="M 720.89 39.01 C 721.05 40.00 721.76 40.31 723.01 39.94 L 723.56 40.03 C 724.12 41.66 725.52 43.44 727.45 42.98 L 728.02 43.68 C 727.90 45.02 728.56 45.94 730.01 46.45 L 730.01 46.51 C 730.05 48.97 731.76 51.46 731.99 53.98 C 731.95 56.57 732.39 59.06 731.95 61.65 C 731.18 62.09 730.43 62.54 729.68 63.00 C 720.44 63.00 711.19 63.00 701.94 63.00 C 700.16 62.60 700.75 65.59 701.99 65.92 C 701.82 68.19 702.14 71.18 704.00 72.72 L 704.05 72.95 L 704.15 73.79 L 705.01 74.05 C 707.08 76.26 709.79 77.65 712.79 78.05 C 713.13 79.68 715.94 78.91 717.13 79.08 C 718.19 79.16 718.88 78.82 719.20 78.05 C 722.13 77.64 725.04 76.80 727.79 75.71 L 730.00 75.83 C 729.96 77.45 730.11 79.12 729.88 80.72 C 728.42 81.44 726.96 82.12 725.59 83.01 L 725.10 83.04 L 723.87 83.61 L 723.09 83.66 C 722.26 82.33 721.58 82.44 721.05 83.98 C 718.45 84.54 715.90 84.54 713.25 84.55 C 712.73 83.89 711.92 83.78 710.82 84.22 C 703.97 83.63 697.84 79.44 695.63 72.80 L 695.39 72.15 C 694.86 70.51 694.32 68.82 694.12 67.10 C 695.67 65.77 695.76 63.04 693.97 61.88 L 693.97 61.10 C 695.53 60.11 695.73 57.76 694.08 56.75 C 694.18 55.41 694.42 54.28 694.95 53.04 C 696.31 52.68 696.61 51.64 695.87 49.91 C 696.84 47.24 698.46 44.70 700.69 42.90 C 702.20 43.36 703.02 42.70 703.15 40.92 C 708.25 37.73 715.25 37.05 720.89 39.01 Z" fill="#ed1c24" />
<path d="M 87.01 39.30 L 87.96 38.65 C 88.00 52.76 87.94 66.91 87.97 81.02 C 87.84 82.73 89.00 83.06 90.11 84.00 C 88.68 84.24 87.65 83.87 87.02 82.90 C 86.99 68.37 86.99 53.83 87.01 39.30 Z" fill="#c42b07" />
<path d="M 164.00 39.04 C 163.93 53.76 164.14 68.53 163.89 83.25 L 163.02 81.97 C 162.99 68.31 162.99 54.64 163.02 40.98 C 162.95 39.92 163.27 39.27 164.00 39.04 Z" fill="#ea912a" />
<path d="M 240.95 39.06 L 241.65 39.13 L 242.01 39.77 L 240.95 39.06 Z" fill="#8c683c" />
<path d="M 264.26 39.42 L 265.00 39.04 C 264.95 53.77 265.10 68.54 264.92 83.27 L 264.01 81.99 C 263.99 68.65 264.01 55.30 264.00 41.96 C 263.96 41.08 264.04 40.24 264.26 39.42 Z" fill="#e69e1a" />
<path d="M 280.05 39.07 L 278.97 39.88 L 280.05 39.07 Z" fill="#825939" />
<path d="M 318.96 39.06 L 319.70 39.09 L 320.08 39.71 L 319.37 39.63 L 318.96 39.06 Z" fill="#475850" />
<path d="M 367.47 39.36 L 367.68 39.29 L 367.25 39.48 L 367.47 39.36 Z" fill="#8a7431" />
<path d="M 465.16 39.22 C 466.62 40.69 465.51 42.57 466.96 44.22 C 466.72 46.10 467.96 47.31 467.99 49.08 L 467.05 48.92 C 466.80 45.89 465.15 43.07 464.87 40.00 L 465.16 39.22 Z" fill="#81543e" />
<path d="M 570.26 39.00 L 571.05 39.03 L 570.57 39.68 L 569.76 39.58 L 570.26 39.00 Z" fill="#411755" />
<path d="M 583.32 39.29 L 583.70 39.46 L 583.32 39.29 Z" fill="#637556" />
<path d="M 610.36 39.25 L 611.03 39.13 L 610.02 39.84 L 610.36 39.25 Z" fill="#8e6345" />
<path d="M 644.04 38.69 L 644.94 38.53 C 645.98 38.51 647.01 38.54 648.04 38.62 L 649.02 38.76 C 650.18 38.93 650.68 39.66 650.50 40.94 C 650.37 54.40 650.67 69.59 650.34 82.81 C 648.91 82.77 648.11 83.17 647.94 84.00 C 646.99 84.00 646.03 84.00 645.08 83.99 C 644.92 83.02 644.19 82.71 642.88 83.04 L 642.60 82.15 C 642.65 68.42 642.63 54.69 642.61 40.96 C 642.45 39.70 642.93 38.94 644.04 38.69 Z" fill="#ed1c24" />
<path d="M 659.18 39.32 L 660.12 39.00 C 659.42 41.03 659.23 42.96 660.01 45.00 C 662.33 45.23 664.63 45.08 666.95 45.21 C 667.07 54.75 666.96 64.31 667.00 73.86 C 667.01 75.50 668.15 76.88 668.00 78.60 C 666.40 77.26 666.98 73.99 666.11 72.01 C 665.85 63.36 666.08 54.57 666.00 45.90 C 664.10 45.80 662.11 46.09 660.24 45.75 C 658.25 44.68 659.08 41.21 659.18 39.32 Z" fill="#a76720" />
<path d="M 720.89 39.01 C 721.92 38.81 722.63 39.12 723.01 39.94 C 721.76 40.31 721.05 40.00 720.89 39.01 Z" fill="#8b5a39" />
<path d="M 73.91 39.71 C 74.40 41.19 75.15 42.37 75.00 43.99 C 74.93 46.69 75.87 49.27 75.74 52.00 C 76.00 55.45 74.76 58.62 74.99 62.06 C 73.95 64.93 73.72 67.67 72.08 70.36 C 73.22 65.86 74.40 61.44 74.98 56.81 C 75.01 53.90 75.02 50.96 74.98 48.05 C 74.50 45.25 73.77 42.58 73.91 39.71 Z" fill="#516d6d" />
<path d="M 242.47 39.88 C 245.26 40.70 249.29 43.75 250.04 46.68 C 247.66 44.15 245.06 42.12 242.47 39.88 Z" fill="#9b3530" />
<path d="M 278.41 40.01 C 278.03 41.50 277.15 42.16 275.77 42.00 C 275.98 41.02 276.86 40.36 278.41 40.01 Z" fill="#614b81" />
<path d="M 455.00 39.96 C 455.21 42.00 454.88 43.18 454.01 43.51 C 453.70 41.34 454.02 40.16 455.00 39.96 Z" fill="#58423b" />
<path d="M 457.10 39.91 L 457.61 41.12 L 457.10 39.91 Z" fill="#92701b" />
<path d="M 533.80 40.07 C 535.29 40.68 536.39 41.51 537.37 42.79 C 535.01 43.46 534.06 42.28 533.80 40.07 Z" fill="#2a8643" />
<path d="M 584.50 39.92 C 586.79 40.93 589.05 43.03 590.01 45.36 C 587.95 43.78 586.13 41.93 584.50 39.92 Z" fill="#3a4e8b" />
<path d="M 609.44 39.99 C 609.01 41.56 608.08 42.21 606.65 41.95 C 607.12 40.96 608.05 40.31 609.44 39.99 Z" fill="#5c4b81" />
<path d="M 628.00 40.16 L 628.79 40.28 L 629.03 40.99 L 628.00 40.16 Z" fill="#7b8e34" />
<path d="M 723.56 40.03 C 725.10 40.24 726.64 41.70 727.45 42.98 C 725.52 43.44 724.12 41.66 723.56 40.03 Z" fill="#98332d" />
<path d="M 99.22 40.94 C 97.85 43.09 96.25 44.99 94.01 46.27 L 94.00 45.31 C 95.67 43.75 97.28 42.17 99.22 40.94 Z" fill="#c1261b" />
<path d="M 295.34 41.58 L 295.79 42.17 L 295.34 41.58 Z" fill="#a8c440" />
<path d="M 513.17 40.97 C 512.91 42.67 512.07 43.33 510.66 42.94 C 511.03 42.01 511.87 41.35 513.17 40.97 Z" fill="#4e7427" />
<path d="M 703.15 40.92 C 703.02 42.70 702.20 43.36 700.69 42.90 C 701.11 42.03 701.93 41.36 703.15 40.92 Z" fill="#af2d14" />
<path d="M 275.17 42.04 C 274.58 42.80 272.88 45.27 271.92 44.98 L 271.83 43.20 C 272.93 42.50 274.04 42.11 275.17 42.04 Z" fill="#f4c939" />
<path d="M 386.47 41.70 C 387.25 42.75 387.34 45.32 386.40 46.29 C 385.65 44.71 385.67 43.18 386.47 41.70 Z" fill="#596b4b" />
<path d="M 458.00 41.92 C 460.09 43.07 460.80 46.17 459.59 48.20 C 459.01 46.21 457.91 43.98 458.00 41.92 Z" fill="#be3315" />
<path d="M 145.81 42.29 C 148.90 44.60 148.87 48.59 149.99 51.91 C 150.01 61.95 149.99 71.99 150.00 82.03 C 150.16 84.00 148.52 84.13 146.99 84.00 C 147.66 83.64 148.33 83.27 149.00 82.89 C 149.03 72.59 149.00 62.27 149.00 51.96 C 149.15 50.21 148.14 48.93 147.94 47.16 C 147.73 45.30 145.89 44.24 145.81 42.29 Z" fill="#7b473d" />
<path d="M 196.53 42.89 L 197.08 43.53 L 196.53 42.89 Z" fill="#006043" />
<path d="M 296.14 42.76 C 297.30 43.50 298.21 44.57 298.00 46.05 L 297.13 46.10 C 296.42 45.23 296.09 44.12 296.14 42.76 Z" fill="#253d8d" />
<path d="M 323.86 42.83 C 326.48 45.88 327.12 49.64 327.22 53.54 C 325.56 52.62 326.22 50.78 325.86 49.18 C 325.49 47.01 324.45 44.95 323.86 42.83 Z" fill="#324c7f" />
<path d="M 362.90 42.60 C 363.21 44.11 362.58 45.04 361.00 45.41 C 361.25 44.10 361.88 43.16 362.90 42.60 Z" fill="#4f832e" />
<path d="M 605.96 42.59 C 606.22 44.00 605.58 44.95 604.02 45.44 C 604.26 44.11 604.91 43.16 605.96 42.59 Z" fill="#61447b" />
<path d="M 30.82 43.54 C 30.83 45.09 30.05 46.47 30.01 48.00 C 30.05 53.22 29.59 58.33 30.82 63.45 C 29.03 60.88 29.15 56.97 29.27 54.00 C 29.39 50.54 28.59 46.52 30.82 43.54 Z" fill="#3d607c" />
<path d="M 112.01 47.21 C 109.22 44.74 107.34 44.60 103.69 45.04 C 105.96 42.99 111.29 44.01 112.01 47.21 Z" fill="#b8301f" />
<path d="M 136.29 44.95 C 133.97 45.09 131.96 44.56 129.80 45.78 C 130.59 43.15 134.94 42.79 136.29 44.95 Z" fill="#af3826" />
<path d="M 286.29 44.94 C 284.81 44.97 283.29 44.97 281.75 44.93 C 282.79 43.50 285.39 43.23 286.29 44.94 Z" fill="#514872" />
<path d="M 313.28 44.97 C 311.80 44.93 310.31 44.93 308.83 44.99 C 309.56 43.35 312.58 43.32 313.28 44.97 Z" fill="#4a4f75" />
<path d="M 454.01 43.93 L 453.91 45.63 L 453.12 45.65 C 452.65 44.43 452.95 43.86 454.01 43.93 Z" fill="#6e2733" />
<path d="M 491.00 43.68 C 491.38 45.55 490.35 46.53 490.10 48.22 C 490.13 49.55 489.76 50.27 488.99 50.37 C 488.77 49.27 488.82 48.25 489.15 47.31 C 489.97 46.33 489.60 43.91 491.00 43.68 Z" fill="#7a4d3e" />
<path d="M 509.93 43.61 C 507.89 46.83 506.50 49.93 504.95 53.39 C 505.05 50.13 507.42 45.70 509.93 43.61 Z" fill="#71812e" />
<path d="M 525.83 44.00 C 529.01 44.96 530.63 45.96 532.90 48.36 L 533.06 48.73 C 533.97 50.50 533.48 52.84 534.94 54.15 L 535.01 54.76 L 534.96 57.12 C 527.30 57.15 519.64 57.12 511.98 57.14 C 512.49 55.21 513.02 53.33 513.37 51.37 C 513.82 50.72 514.12 49.98 514.27 49.16 L 514.98 48.91 L 515.01 48.17 C 516.15 47.71 516.84 46.49 517.89 45.82 C 520.35 44.16 522.91 43.78 525.83 44.00 Z" fill="#fcde67" />
<path d="M 525.83 44.00 C 526.90 43.91 527.88 44.04 528.79 44.40 C 531.03 45.31 532.20 45.89 532.90 48.36 C 530.63 45.96 529.01 44.96 525.83 44.00 Z" fill="#5e8b38" />
<path d="M 538.14 43.69 C 539.05 44.13 539.70 45.02 540.07 46.35 C 538.39 46.12 537.75 45.23 538.14 43.69 Z" fill="#297744" />
<path d="M 620.80 44.01 C 621.93 43.82 622.68 44.11 623.05 44.89 C 621.81 45.31 621.06 45.01 620.80 44.01 Z" fill="#a58954" />
<path d="M 712.10 44.00 C 708.47 44.96 706.79 46.75 704.16 49.15 C 704.34 46.39 709.47 43.46 712.10 44.00 Z" fill="#9d4635" />
<path d="M 712.10 44.00 C 715.68 43.71 717.92 44.37 720.97 46.14 L 721.07 46.90 L 721.84 47.05 C 722.82 48.54 723.89 49.85 724.18 51.68 C 723.74 52.65 723.94 53.46 724.77 54.11 L 724.99 54.81 L 725.00 57.07 C 717.33 57.17 709.64 57.09 701.97 57.12 C 702.41 54.67 703.39 52.29 703.83 49.86 L 704.16 49.15 C 706.79 46.75 708.47 44.96 712.10 44.00 Z" fill="#fcde67" />
<path d="M 728.02 43.68 C 729.30 44.25 729.96 45.17 730.01 46.45 C 728.56 45.94 727.90 45.02 728.02 43.68 Z" fill="#703f35" />
<path d="M 120.07 45.07 L 120.89 45.12 L 121.03 46.00 L 120.19 46.09 L 120.07 45.07 Z" fill="#1a7b50" />
<path d="M 178.35 45.36 L 179.28 44.88 L 180.24 45.16 C 179.91 45.82 179.23 46.19 178.22 46.27 L 178.35 45.36 Z" fill="#22753d" />
<path d="M 242.31 49.23 L 242.67 49.83 C 245.09 54.00 245.11 58.25 245.17 62.92 C 245.00 63.96 244.94 65.02 245.00 66.10 C 244.43 67.72 244.11 69.44 243.42 71.02 L 243.13 71.62 C 242.71 72.40 242.29 73.17 241.86 73.95 L 241.08 74.08 L 240.96 74.87 C 237.47 77.67 233.84 78.45 229.43 77.88 C 224.63 76.29 221.80 73.37 220.42 68.51 C 219.42 64.24 220.22 58.83 220.00 54.36 L 220.00 54.23 C 221.21 53.29 222.04 50.09 222.89 48.53 C 227.63 42.98 238.17 43.04 242.31 49.23 Z" fill="#fcde67" />
<path d="M 313.99 45.03 L 314.77 45.08 L 315.09 45.84 L 314.33 45.75 L 313.99 45.03 Z" fill="#c38a11" />
<path d="M 577.70 45.02 C 579.80 46.22 581.39 47.76 583.02 49.51 L 583.21 50.04 L 583.86 50.91 L 584.00 51.41 C 583.67 53.49 585.31 54.91 585.00 57.01 C 585.31 62.51 585.32 67.33 583.12 72.49 C 581.77 75.07 579.70 76.93 576.82 77.63 C 573.47 78.69 569.98 76.78 567.30 74.90 C 566.13 73.62 564.53 71.51 563.00 70.86 L 562.99 70.47 C 562.97 64.36 562.93 58.24 563.01 52.12 C 564.44 50.96 565.52 49.40 566.90 48.16 C 568.04 47.64 568.88 46.96 569.43 46.11 C 572.17 44.92 574.71 44.32 577.70 45.02 Z" fill="#fcde67" />
<path d="M 577.70 45.02 C 578.59 44.95 579.45 45.26 580.26 45.95 C 581.35 46.86 582.88 48.03 583.02 49.51 C 581.39 47.76 579.80 46.22 577.70 45.02 Z" fill="#9e7a54" />
<path d="M 129.42 45.97 C 127.83 47.94 125.81 50.19 123.58 51.40 C 124.70 49.31 127.17 46.85 129.42 45.97 Z" fill="#a7a256" />
<path d="M 198.33 45.78 C 199.08 46.87 199.86 49.84 200.00 51.18 C 197.95 50.56 197.33 47.51 198.33 45.78 Z" fill="#2e7644" />
<path d="M 279.34 46.08 C 277.20 48.18 275.05 50.23 273.02 52.45 C 272.97 62.52 273.03 72.60 272.99 82.67 L 272.14 83.36 C 271.83 73.26 272.07 63.10 272.01 52.99 C 274.14 50.39 276.21 47.54 279.34 46.08 Z" fill="#66864f" />
<path d="M 306.58 46.35 L 305.86 46.75 L 306.58 46.35 Z" fill="#a4b73b" />
<path d="M 315.85 45.93 C 317.42 45.87 318.14 46.63 318.00 48.21 C 316.89 47.76 316.18 47.01 315.85 45.93 Z" fill="#4f3078" />
<path d="M 360.91 45.80 C 361.34 47.50 361.55 48.89 359.96 50.02 C 359.96 48.77 359.60 46.49 360.91 45.80 Z" fill="#5a6420" />
<path d="M 453.12 45.65 L 453.91 45.63 C 454.16 46.43 453.97 47.31 453.31 48.27 C 452.85 49.73 453.61 50.91 452.08 51.84 L 451.71 51.18 C 451.63 49.10 452.75 47.62 453.12 45.65 Z" fill="#766c48" />
<path d="M 569.43 46.11 C 568.88 46.96 568.04 47.64 566.90 48.16 C 566.94 46.35 567.78 45.67 569.43 46.11 Z" fill="#2b4390" />
<path d="M 590.11 45.58 C 592.02 48.30 593.09 52.11 593.14 55.41 L 592.31 54.63 C 591.84 51.53 590.63 48.65 590.11 45.58 Z" fill="#253f81" />
<path d="M 603.94 45.82 C 604.31 47.53 604.56 48.84 603.00 50.01 C 602.96 48.65 602.58 46.63 603.94 45.82 Z" fill="#663956" />
<path d="M 720.97 46.14 L 721.64 46.36 L 721.84 47.05 L 721.07 46.90 L 720.97 46.14 Z" fill="#781509" />
<path d="M 100.35 47.03 C 99.35 48.41 97.44 50.39 96.02 51.31 C 95.55 49.38 98.41 46.50 100.35 47.03 Z" fill="#921523" />
<path d="M 250.12 46.95 L 250.95 47.23 L 250.97 48.08 L 250.20 47.77 L 250.12 46.95 Z" fill="#516449" />
<path d="M 305.23 47.09 C 304.11 48.70 302.54 50.03 301.13 51.39 C 300.43 48.99 302.90 46.94 305.23 47.09 Z" fill="#222f87" />
<path d="M 730.01 46.51 C 732.32 48.98 731.62 51.34 732.94 54.08 C 733.09 56.39 732.93 58.72 733.01 61.03 C 732.60 61.66 732.18 62.29 731.74 62.90 L 729.68 63.00 C 730.43 62.54 731.18 62.09 731.95 61.65 C 732.39 59.06 731.95 56.57 731.99 53.98 C 731.76 51.46 730.05 48.97 730.01 46.51 Z" fill="#786244" />
<path d="M 66.77 47.48 C 67.18 48.88 66.95 50.51 67.00 51.97 C 65.16 51.06 65.61 48.76 66.77 47.48 Z" fill="#fcbc2d" />
<path d="M 176.21 48.06 C 175.69 48.92 174.91 49.62 173.87 50.16 C 173.58 48.45 174.36 47.75 176.21 48.06 Z" fill="#4d7947" />
<path d="M 368.02 47.44 C 367.59 49.42 367.37 50.86 368.15 52.79 C 369.13 53.87 370.30 54.83 371.39 55.80 C 367.41 55.26 365.53 50.49 368.02 47.44 Z" fill="#4c854b" />
<path d="M 482.05 48.04 L 482.71 48.22 L 482.66 48.83 L 481.97 48.92 L 482.05 48.04 Z" fill="#940001" />
<path d="M 514.29 48.40 L 515.01 48.17 L 514.98 48.91 L 514.27 49.16 L 514.29 48.40 Z" fill="#052a2f" />
<path d="M 540.65 47.38 C 542.04 50.25 543.07 54.28 542.94 57.47 C 541.68 54.52 540.34 50.59 540.65 47.38 Z" fill="#317845" />
<path d="M 611.01 47.24 C 610.80 49.18 610.43 50.88 611.15 52.78 C 612.19 53.86 613.35 54.85 614.43 55.89 C 612.24 55.39 611.11 53.82 610.01 52.00 C 610.14 50.20 609.45 48.58 611.01 47.24 Z" fill="#688063" />
<path d="M 222.89 48.53 C 222.04 50.09 221.21 53.29 220.00 54.23 C 219.39 52.18 220.60 48.98 222.89 48.53 Z" fill="#8b4839" />
<path d="M 242.31 49.23 L 242.67 49.83 L 242.31 49.23 Z" fill="#a07f1c" />
<path d="M 251.00 48.42 C 252.69 49.23 251.56 50.96 252.98 52.33 C 252.63 55.40 254.28 57.94 254.01 61.00 C 254.06 63.71 252.73 66.10 252.98 68.85 C 251.87 71.20 251.15 75.06 248.92 76.66 C 249.00 74.84 250.70 73.66 251.03 71.85 C 252.96 65.99 253.93 60.02 252.18 53.99 C 252.16 51.98 250.78 50.40 251.00 48.42 Z" fill="#7a6946" />
<path d="M 318.00 48.52 C 319.50 50.01 319.34 53.05 319.94 55.02 C 320.08 64.48 319.96 73.98 320.00 83.45 L 319.04 82.73 C 318.98 72.83 319.01 62.90 319.02 53.00 C 319.25 51.28 317.74 50.20 318.00 48.52 Z" fill="#a86119" />
<path d="M 459.94 49.13 L 460.68 49.15 L 460.79 49.79 L 460.10 50.01 L 459.94 49.13 Z" fill="#850003" />
<path d="M 467.05 48.92 L 467.99 49.08 L 468.11 50.06 L 467.84 50.94 C 467.04 50.51 466.77 49.83 467.05 48.92 Z" fill="#7e051f" />
<path d="M 533.06 48.73 C 535.54 49.63 535.52 51.95 534.94 54.15 C 533.48 52.84 533.97 50.50 533.06 48.73 Z" fill="#79802b" />
<path d="M 191.07 49.69 C 191.88 50.11 192.18 50.89 191.96 52.05 C 191.03 51.69 190.74 50.90 191.07 49.69 Z" fill="#b16d19" />
<path d="M 291.11 49.83 C 291.90 50.43 292.19 51.30 291.97 52.42 C 291.05 52.05 290.77 51.19 291.11 49.83 Z" fill="#935432" />
<path d="M 468.11 50.06 C 469.59 51.66 468.51 53.52 469.97 55.22 C 469.63 57.21 471.16 58.27 470.98 60.11 L 470.05 59.95 C 469.80 56.89 468.15 54.04 467.84 50.94 L 468.11 50.06 Z" fill="#7e523d" />
<path d="M 481.14 50.32 L 481.76 49.90 L 481.13 51.06 L 481.14 50.32 Z" fill="#906e1a" />
<path d="M 583.21 50.04 L 583.86 50.91 L 583.21 50.04 Z" fill="#ac6635" />
<path d="M 695.87 49.91 C 696.61 51.64 696.31 52.68 694.95 53.04 C 694.79 51.74 695.10 50.70 695.87 49.91 Z" fill="#ae4f17" />
<path d="M 703.83 49.86 C 703.39 52.29 702.41 54.67 701.97 57.12 C 709.64 57.09 717.33 57.17 725.00 57.07 L 724.99 54.81 C 725.32 55.71 725.60 56.62 725.82 57.54 C 717.68 57.99 709.33 57.81 701.18 57.65 C 702.05 55.13 701.47 51.35 703.83 49.86 Z" fill="#b04e32" />
<path d="M 451.71 51.18 L 452.08 51.84 C 452.28 53.63 451.95 54.77 451.12 55.24 C 450.68 53.82 450.59 52.30 451.71 51.18 Z" fill="#623734" />
<path d="M 489.00 50.67 C 489.38 52.55 488.35 53.53 488.11 55.23 C 488.13 56.57 487.76 57.26 487.01 57.31 C 486.77 56.23 486.82 55.23 487.15 54.31 C 487.96 53.33 487.60 50.90 489.00 50.67 Z" fill="#7a4d3e" />
<path d="M 513.37 51.37 C 513.02 53.33 512.49 55.21 511.98 57.14 C 519.64 57.12 527.30 57.15 534.96 57.12 L 535.01 54.76 C 535.40 55.71 535.67 56.68 535.84 57.67 C 527.81 57.93 519.28 58.03 511.28 57.59 C 511.66 55.34 511.88 53.20 513.37 51.37 Z" fill="#519243" />
<path d="M 67.00 51.97 C 68.80 51.78 68.42 54.46 67.03 54.82 L 66.89 54.07 L 67.00 51.97 Z" fill="#240f6b" />
<path d="M 95.98 51.34 L 95.01 53.15 C 94.97 63.07 95.03 72.99 94.98 82.91 L 94.68 83.62 C 93.78 83.93 92.83 84.06 91.81 84.00 C 92.54 83.62 93.27 83.23 93.99 82.83 C 94.03 72.92 93.96 63.01 94.02 53.11 C 94.54 52.36 95.19 51.77 95.98 51.34 Z" fill="#60192b" />
<path d="M 122.16 52.37 L 123.11 51.72 C 122.82 62.01 123.10 72.37 122.97 82.67 L 122.08 83.34 C 121.99 73.15 121.85 62.52 122.16 52.37 Z" fill="#5fa15b" />
<path d="M 172.01 52.25 C 171.88 62.39 172.00 72.53 171.96 82.67 L 170.75 84.00 L 169.04 84.00 C 170.14 83.06 171.23 82.73 171.01 81.02 C 171.02 71.72 170.94 62.40 171.05 53.10 L 172.01 52.25 Z" fill="#5a774c" />
<path d="M 300.13 52.28 C 299.83 62.46 300.08 72.74 300.00 82.94 C 299.32 83.74 298.28 84.09 296.89 84.00 C 297.55 83.59 298.21 83.16 298.86 82.73 C 299.24 72.96 298.80 62.99 299.08 53.20 L 300.13 52.28 Z" fill="#084287" />
<path d="M 360.00 51.86 C 361.11 52.14 361.42 53.26 360.92 55.21 C 360.06 54.50 359.75 53.39 360.00 51.86 Z" fill="#5d5b1b" />
<path d="M 481.07 52.00 L 481.77 52.19 L 481.71 52.83 L 480.98 52.90 L 481.07 52.00 Z" fill="#850003" />
<path d="M 563.01 52.12 C 562.93 58.24 562.97 64.36 562.99 70.47 L 562.08 69.70 C 561.90 64.13 562.05 58.52 562.00 52.95 L 563.01 52.12 Z" fill="#5b803e" />
<path d="M 584.00 51.41 C 585.48 53.11 584.79 55.03 585.66 57.04 C 586.25 61.91 586.08 68.35 583.12 72.49 C 585.32 67.33 585.31 62.51 585.00 57.01 C 585.31 54.91 583.67 53.49 584.00 51.41 Z" fill="#8a5c5b" />
<path d="M 603.00 51.88 C 604.07 52.15 604.39 53.25 603.97 55.18 C 603.07 54.56 602.75 53.45 603.00 51.88 Z" fill="#68334d" />
<path d="M 724.18 51.68 C 725.07 52.17 725.27 52.99 724.77 54.11 C 723.94 53.46 723.74 52.65 724.18 51.68 Z" fill="#a67d21" />
<path d="M 192.00 52.51 C 193.35 54.22 192.92 55.98 193.00 58.00 C 192.92 66.51 193.13 75.04 192.88 83.55 L 192.03 82.84 C 192.02 72.73 192.06 62.62 192.00 52.51 Z" fill="#748627" />
<path d="M 199.99 52.33 C 200.05 62.23 199.99 72.13 200.02 82.03 C 200.31 83.89 198.25 84.06 196.91 84.00 C 197.60 83.61 198.28 83.22 198.95 82.81 C 199.08 73.54 198.94 64.26 199.02 54.98 C 199.13 54.07 199.45 53.19 199.99 52.33 Z" fill="#054635" />
<path d="M 66.89 54.07 L 67.03 54.82 C 67.08 56.05 67.00 57.24 66.81 58.41 C 65.13 57.39 65.56 55.22 66.89 54.07 Z" fill="#fcc231" />
<path d="M 141.94 53.68 L 142.98 55.17 C 143.04 64.10 142.96 73.04 143.02 81.97 L 143.26 82.63 C 143.89 83.09 144.51 83.55 145.14 84.00 C 143.87 84.17 142.82 83.81 142.00 82.91 C 141.96 73.17 142.08 63.42 141.94 53.68 Z" fill="#990209" />
<path d="M 292.00 53.21 C 292.79 53.95 293.13 54.87 293.00 55.97 C 293.00 64.90 292.98 73.83 293.01 82.75 C 293.68 83.18 294.36 83.59 295.03 84.00 C 293.78 84.21 292.77 83.82 292.00 82.82 C 292.02 72.95 292.01 63.08 292.00 53.21 Z" fill="#552760" />
<path d="M 480.07 54.32 L 480.67 53.82 L 480.19 55.10 L 480.07 54.32 Z" fill="#835d15" />
<path d="M 504.91 53.77 C 505.04 55.81 506.04 59.72 503.95 60.99 C 504.02 58.86 503.58 55.51 504.91 53.77 Z" fill="#535d1f" />
<path d="M 220.00 54.36 C 220.22 58.83 219.42 64.24 220.42 68.51 C 221.80 73.37 224.63 76.29 229.43 77.88 C 225.95 77.92 223.73 75.83 221.66 73.32 C 218.24 67.95 219.07 63.04 219.01 57.01 C 219.01 55.91 219.34 55.03 220.00 54.36 Z" fill="#816844" />
<path d="M 451.12 55.24 C 451.01 56.45 451.37 58.81 450.02 59.35 C 449.99 57.99 449.25 55.65 451.12 55.24 Z" fill="#683e36" />
<path d="M 361.01 55.90 L 361.73 56.30 L 361.73 57.13 L 361.04 56.70 L 361.01 55.90 Z" fill="#7d500a" />
<path d="M 593.21 55.61 C 594.50 58.94 594.12 63.09 593.22 66.49 C 593.04 70.41 591.48 75.02 588.91 78.09 C 590.77 74.12 592.17 70.12 592.95 65.79 C 593.17 62.42 592.74 58.95 593.21 55.61 Z" fill="#4f6b64" />
<path d="M 604.02 55.87 L 604.81 56.25 L 604.79 57.11 L 604.06 56.69 L 604.02 55.87 Z" fill="#81401e" />
<path d="M 615.06 56.11 L 615.71 56.20 L 616.06 56.79 L 615.06 56.11 Z" fill="#556357" />
<path d="M 617.93 57.29 L 619.06 57.85 L 618.36 57.82 L 617.93 57.29 Z" fill="#92a632" />
<path d="M 694.08 56.75 C 695.73 57.76 695.53 60.11 693.97 61.10 C 693.92 59.64 693.95 58.19 694.08 56.75 Z" fill="#930009" />
<path d="M 462.13 57.91 L 462.70 59.15 L 462.07 58.69 L 462.13 57.91 Z" fill="#845f15" />
<path d="M 486.28 58.24 L 487.00 57.37 C 487.04 60.25 485.41 63.14 484.99 66.01 C 483.42 71.15 481.98 76.36 480.55 81.53 C 479.57 83.92 478.29 84.21 475.84 84.00 C 477.27 83.34 478.71 82.93 479.83 81.75 C 481.40 73.85 484.17 66.05 486.28 58.24 Z" fill="#873c33" />
<path d="M 620.17 58.28 L 620.80 58.53 L 620.17 58.28 Z" fill="#716f56" />
<path d="M 449.99 59.68 C 450.27 61.61 449.94 62.84 449.01 63.36 C 448.72 61.44 449.05 60.21 449.99 59.68 Z" fill="#525842" />
<path d="M 462.94 60.13 L 463.69 60.11 L 463.82 60.76 L 463.13 61.00 L 462.94 60.13 Z" fill="#840002" />
<path d="M 470.05 59.95 L 470.98 60.11 L 471.11 61.08 L 470.85 61.95 C 470.04 61.52 469.77 60.86 470.05 59.95 Z" fill="#7e051f" />
<path d="M 471.11 61.08 C 472.12 62.24 471.95 63.33 472.15 64.75 C 472.85 65.72 473.14 66.78 473.04 67.93 C 473.92 69.64 474.18 70.69 474.00 72.68 L 473.22 71.72 C 472.82 68.36 471.27 65.29 470.85 61.95 L 471.11 61.08 Z" fill="#7a4b3b" />
<path d="M 384.44 61.91 L 385.12 62.52 L 384.44 61.91 Z" fill="#006036" />
<path d="M 503.97 61.67 C 505.24 63.76 505.02 65.65 504.99 67.98 C 504.84 69.96 506.28 71.46 506.00 73.45 C 504.08 69.72 503.83 65.79 503.97 61.67 Z" fill="#5c6e25" />
<path d="M 693.97 61.88 C 695.76 63.04 695.67 65.77 694.12 67.10 C 693.90 65.39 693.97 63.61 693.97 61.88 Z" fill="#9b0608" />
<path d="M 22.01 62.92 C 23.05 63.22 23.37 64.32 22.97 66.23 L 22.30 66.08 C 22.05 65.02 21.96 63.97 22.01 62.92 Z" fill="#68354e" />
<path d="M 245.17 62.92 C 246.39 63.72 246.86 65.88 245.00 66.10 C 244.94 65.02 245.00 63.96 245.17 62.92 Z" fill="#a61405" />
<path d="M 371.12 63.44 L 371.90 63.77 L 371.12 63.44 Z" fill="#8a7631" />
<path d="M 510.89 63.00 L 511.98 63.00 C 512.26 66.15 512.95 69.63 514.11 72.53 C 511.47 70.78 511.80 65.88 510.89 63.00 Z" fill="#3b7847" />
<path d="M 614.17 63.38 L 614.82 63.63 L 614.17 63.38 Z" fill="#8e6545" />
<path d="M 701.94 63.00 L 702.13 65.06 L 701.99 65.92 C 700.75 65.59 700.16 62.60 701.94 63.00 Z" fill="#6e001b" />
<path d="M 30.84 63.58 C 31.54 66.38 32.70 68.91 34.13 71.42 C 31.81 69.85 30.16 66.33 30.84 63.58 Z" fill="#3b548a" />
<path d="M 372.95 64.18 L 373.61 64.19 L 374.08 64.64 L 372.95 64.18 Z" fill="#c67632" />
<path d="M 386.11 63.50 C 387.79 64.83 389.20 68.48 388.94 70.54 C 387.62 68.40 386.90 65.87 386.11 63.50 Z" fill="#397a48" />
<path d="M 449.00 63.69 C 449.27 65.46 448.95 66.65 448.02 67.25 C 447.70 65.32 448.03 64.13 449.00 63.69 Z" fill="#585c44" />
<path d="M 629.07 63.52 C 632.78 67.06 632.87 73.24 630.19 77.44 C 631.42 72.38 631.73 68.19 629.07 63.52 Z" fill="#415f72" />
<path d="M 428.19 64.48 C 430.02 66.18 430.73 69.06 430.21 71.46 C 429.43 69.16 428.78 66.84 428.19 64.48 Z" fill="#bf341a" />
<path d="M 441.54 65.13 L 441.35 65.88 L 441.54 65.13 Z" fill="#9f781f" />
<path d="M 702.13 65.06 C 702.67 66.74 703.18 68.16 703.01 69.97 C 703.80 70.84 704.13 71.76 704.00 72.72 C 702.14 71.18 701.82 68.19 701.99 65.92 L 702.13 65.06 Z" fill="#7c6a46" />
<path d="M 22.30 66.08 L 22.97 66.23 L 22.89 67.06 L 22.30 66.08 Z" fill="#db8f0e" />
<path d="M 377.46 66.04 C 380.18 66.07 383.83 71.65 381.00 73.55 C 381.01 72.39 381.01 71.23 380.98 70.07 C 380.31 68.49 378.63 67.27 377.46 66.04 Z" fill="#3e6e2b" />
<path d="M 620.54 66.07 C 621.36 66.34 622.14 66.69 622.86 67.13 C 623.84 69.14 626.40 71.48 624.00 73.44 C 624.04 72.17 624.01 70.91 623.91 69.66 C 622.89 68.36 621.70 67.23 620.54 66.07 Z" fill="#634267" />
<path d="M 64.12 67.23 L 64.88 66.87 L 64.83 67.73 L 64.05 68.06 L 64.12 67.23 Z" fill="#824320" />
<path d="M 441.16 66.97 L 441.75 67.23 L 441.66 67.83 L 440.96 67.87 L 441.16 66.97 Z" fill="#950002" />
<path d="M 437.01 68.19 C 438.54 68.34 438.08 71.08 437.98 72.12 C 436.35 71.75 437.04 69.41 437.01 68.19 Z" fill="#5b5b41" />
<path d="M 447.99 67.72 C 448.30 69.58 447.97 70.74 447.02 71.21 C 446.71 69.41 447.03 68.25 447.99 67.72 Z" fill="#636348" />
<path d="M 63.99 68.49 C 63.93 69.59 63.28 70.58 62.05 71.48 C 61.79 70.11 62.44 69.11 63.99 68.49 Z" fill="#c28f2d" />
<path d="M 211.95 69.17 L 212.64 69.18 L 212.76 69.77 L 212.11 70.01 L 211.95 69.17 Z" fill="#950002" />
<path d="M 440.69 68.96 L 440.23 69.97 L 440.69 68.96 Z" fill="#9f781f" />
<path d="M 465.24 68.93 L 465.72 70.08 L 465.16 69.64 L 465.24 68.93 Z" fill="#906e1a" />
<path d="M 476.61 69.06 L 476.25 69.91 L 476.61 69.06 Z" fill="#a07920" />
<path d="M 243.42 71.02 L 243.13 71.62 L 243.42 71.02 Z" fill="#993d06" />
<path d="M 440.11 71.00 L 440.76 71.22 L 440.68 71.83 L 439.99 71.90 L 440.11 71.00 Z" fill="#950002" />
<path d="M 563.00 70.86 C 564.53 71.51 566.13 73.62 567.30 74.90 C 565.28 75.57 562.72 72.85 563.00 70.86 Z" fill="#222f86" />
<path d="M 388.96 71.78 C 389.28 73.56 388.43 74.76 387.79 76.34 C 386.42 75.47 387.55 72.02 388.96 71.78 Z" fill="#3d7547" />
<path d="M 430.25 71.62 C 432.07 73.24 432.73 76.14 432.21 78.45 C 431.41 76.20 430.81 73.94 430.25 71.62 Z" fill="#bd3319" />
<path d="M 437.98 72.12 L 438.92 72.70 L 438.06 72.87 L 437.98 72.12 Z" fill="#6cb567" />
<path d="M 447.00 71.34 C 447.20 73.30 446.85 74.32 446.01 76.01 C 446.46 78.10 444.79 79.05 445.00 81.01 C 444.85 83.38 442.96 84.42 440.66 84.00 C 441.67 83.58 442.68 83.13 443.67 82.66 C 444.74 79.02 445.12 74.60 447.00 71.34 Z" fill="#7e563c" />
<path d="M 695.39 72.15 L 695.63 72.80 L 695.39 72.15 Z" fill="#ae8623" />
<path d="M 25.05 72.55 C 26.65 73.07 27.27 74.03 26.92 75.42 C 25.99 74.92 25.37 73.96 25.05 72.55 Z" fill="#65487e" />
<path d="M 213.07 73.02 L 213.51 74.17 L 213.03 73.69 L 213.07 73.02 Z" fill="#9d3e07" />
<path d="M 438.06 72.87 L 438.92 72.70 L 439.76 73.21 C 439.72 73.92 439.37 74.51 438.69 75.00 C 438.01 74.88 437.80 74.17 438.06 72.87 Z" fill="#796039" />
<path d="M 474.00 72.88 L 475.83 72.86 C 475.62 73.63 475.96 77.00 474.33 75.61 C 473.95 74.82 473.84 73.91 474.00 72.88 Z" fill="#8a4930" />
<path d="M 704.05 72.95 L 704.91 73.17 L 705.01 74.05 L 704.15 73.79 L 704.05 72.95 Z" fill="#345543" />
<path d="M 37.29 74.47 L 37.60 74.68 L 37.29 74.47 Z" fill="#97982f" />
<path d="M 59.43 74.06 C 58.92 74.97 57.97 75.59 56.57 75.92 C 57.08 74.31 58.03 73.69 59.43 74.06 Z" fill="#be9b4b" />
<path d="M 241.08 74.08 L 241.86 73.95 L 241.69 74.69 L 240.96 74.87 L 241.08 74.08 Z" fill="#681603" />
<path d="M 359.37 74.05 L 360.12 74.00 C 360.28 75.24 359.90 75.92 359.00 76.03 L 359.37 74.05 Z" fill="#4c4511" />
<path d="M 360.96 74.02 L 361.61 74.04 L 361.94 74.72 L 360.96 74.02 Z" fill="#816945" />
<path d="M 380.69 73.98 L 380.25 75.06 L 380.69 73.98 Z" fill="#9b6c1b" />
<path d="M 506.07 73.96 L 506.84 75.04 L 506.15 74.70 L 506.07 73.96 Z" fill="#986719" />
<path d="M 602.35 74.05 L 603.09 74.01 C 603.26 75.21 602.90 75.88 602.00 76.02 L 602.35 74.05 Z" fill="#56213d" />
<path d="M 603.93 74.02 L 604.66 74.05 L 604.97 74.86 L 604.23 74.75 L 603.93 74.02 Z" fill="#7a8029" />
<path d="M 623.23 74.32 L 623.92 73.93 L 623.20 75.11 L 623.23 74.32 Z" fill="#a05c2f" />
<path d="M 674.88 73.77 C 675.43 74.66 675.81 75.55 676.05 76.44 C 674.82 76.26 672.72 74.36 674.88 73.77 Z" fill="#247440" />
<path d="M 214.00 75.03 L 214.66 76.09 L 214.05 75.75 L 214.00 75.03 Z" fill="#973803" />
<path d="M 540.99 76.04 C 541.01 77.59 541.01 79.13 540.99 80.67 L 540.28 81.25 C 540.16 79.57 540.07 77.90 539.88 76.23 L 537.76 75.77 C 539.00 75.26 540.27 74.21 540.99 76.04 Z" fill="#317744" />
<path d="M 730.68 75.26 C 731.33 76.88 730.87 78.97 730.98 80.71 C 729.53 81.81 727.43 83.02 725.59 83.01 C 726.96 82.12 728.42 81.44 729.88 80.72 C 730.11 79.12 729.96 77.45 730.00 75.83 L 727.79 75.71 C 728.81 74.96 729.77 74.81 730.68 75.26 Z" fill="#8f3b31" />
<path d="M 40.84 76.31 L 41.65 76.21 L 42.10 76.89 L 40.84 76.31 Z" fill="#837c27" />
<path d="M 507.02 75.59 C 508.65 76.10 509.29 77.03 508.92 78.37 C 507.98 77.94 507.35 77.02 507.02 75.59 Z" fill="#627e2c" />
<path d="M 685.73 76.19 C 687.39 76.77 687.50 81.42 686.38 82.26 C 685.49 80.42 686.16 78.46 684.95 76.68 L 685.73 76.19 Z" fill="#426440" />
<path d="M 43.09 77.03 L 44.02 77.15 L 43.83 77.91 L 43.13 77.80 L 43.09 77.03 Z" fill="#090d61" />
<path d="M 51.95 77.20 L 52.89 77.06 L 52.87 77.83 L 52.17 77.95 L 51.95 77.20 Z" fill="#2d0d51" />
<path d="M 561.09 76.86 L 562.13 77.58 L 562.27 77.72 C 561.71 79.41 562.00 80.99 561.97 82.76 C 561.14 83.77 560.16 84.19 559.05 84.00 C 559.69 83.61 560.33 83.20 560.96 82.78 C 561.06 80.80 560.92 78.83 561.09 76.86 Z" fill="#425369" />
<path d="M 358.99 77.99 C 360.05 78.57 360.29 79.40 359.72 80.51 C 359.01 79.99 358.76 79.16 358.99 77.99 Z" fill="#266124" />
<path d="M 368.94 78.02 C 371.05 78.07 373.09 78.12 375.20 78.05 C 373.78 80.05 370.49 79.70 368.94 78.02 Z" fill="#3f8539" />
<path d="M 386.76 78.42 L 386.55 78.77 L 386.76 78.42 Z" fill="#636a4b" />
<path d="M 467.93 78.17 L 468.67 78.17 L 468.78 78.80 L 468.08 79.02 L 467.93 78.17 Z" fill="#850003" />
<path d="M 522.77 78.05 C 524.90 77.99 527.05 78.05 529.18 78.03 C 528.70 79.69 523.37 79.60 522.77 78.05 Z" fill="#22672c" />
<path d="M 602.00 78.01 C 603.06 78.57 603.32 79.41 602.76 80.52 C 602.06 80.04 601.81 79.21 602.00 78.01 Z" fill="#381c78" />
<path d="M 611.93 78.04 C 614.03 78.02 616.09 78.12 618.20 78.04 C 617.35 80.03 613.14 79.51 611.93 78.04 Z" fill="#4f4d7e" />
<path d="M 712.79 78.05 C 714.88 78.01 717.11 78.00 719.20 78.05 C 718.88 78.82 718.19 79.16 717.13 79.08 C 715.94 78.91 713.13 79.68 712.79 78.05 Z" fill="#832018" />
<path d="M 432.24 78.60 C 433.88 80.86 434.62 82.79 437.36 84.00 C 435.41 84.14 434.72 83.98 433.28 82.72 C 432.96 81.34 432.56 79.98 432.24 78.60 Z" fill="#b92e1a" />
<path d="M 668.04 78.96 L 668.75 79.33 L 668.73 80.13 L 668.09 79.71 L 668.04 78.96 Z" fill="#8c5a0f" />
<path d="M 468.19 79.63 C 469.71 81.35 471.25 82.77 473.19 84.00 C 469.58 84.42 468.88 82.71 468.19 79.63 Z" fill="#bd261a" />
<path d="M 510.65 80.07 C 511.98 79.73 512.89 80.37 513.38 81.99 C 511.97 81.67 511.06 81.03 510.65 80.07 Z" fill="#65762d" />
<path d="M 243.25 81.22 L 244.09 81.21 L 243.69 81.95 L 242.84 81.97 L 243.25 81.22 Z" fill="#61633c" />
<path d="M 383.71 81.49 L 383.43 81.67 L 383.71 81.49 Z" fill="#81764b" />
<path d="M 565.60 81.01 C 567.08 81.35 568.00 82.01 568.37 82.99 C 567.06 83.24 566.14 82.58 565.60 81.01 Z" fill="#c19434" />
<path d="M 221.35 82.42 L 221.74 82.60 L 221.35 82.42 Z" fill="#a19436" />
<path d="M 583.37 82.37 L 584.08 82.29 L 583.69 82.91 L 582.95 82.94 L 583.37 82.37 Z" fill="#475850" />
<path d="M 605.23 82.33 L 605.84 82.64 L 605.23 82.33 Z" fill="#a97f48" />
<path d="M 624.99 82.34 L 624.01 82.93 L 624.99 82.34 Z" fill="#547556" />
<path d="M 116.10 83.24 L 116.79 83.25 L 116.91 84.00 L 116.00 84.00 L 116.10 83.24 Z" fill="#750c07" />
<path d="M 120.24 83.18 L 121.25 82.89 L 122.08 83.34 C 121.73 83.97 121.00 84.19 119.90 83.99 L 120.24 83.18 Z" fill="#713929" />
<path d="M 163.89 83.25 C 165.00 82.64 165.74 82.89 166.10 84.00 C 164.98 84.19 164.25 83.94 163.89 83.25 Z" fill="#4b5e27" />
<path d="M 264.92 83.27 C 266.02 82.66 266.75 82.90 267.10 84.00 C 266.00 84.18 265.27 83.94 264.92 83.27 Z" fill="#553b51" />
<path d="M 270.25 83.17 L 271.29 82.91 L 272.14 83.36 C 271.71 83.96 270.96 84.17 269.89 83.99 L 270.25 83.17 Z" fill="#28365d" />
<path d="M 320.00 83.45 L 320.84 82.92 L 321.86 83.11 L 322.16 84.00 C 321.24 84.16 320.52 83.97 320.00 83.45 Z" fill="#48436c" />
<path d="M 327.12 83.04 L 326.90 83.72 L 324.94 84.00 C 325.11 83.07 325.83 82.75 327.12 83.04 Z" fill="#385063" />
<path d="M 379.90 83.42 L 379.14 83.72 L 379.90 83.42 Z" fill="#86663e" />
<path d="M 555.00 83.34 C 556.25 82.62 556.97 82.84 557.15 84.00 C 556.14 84.17 555.42 83.95 555.00 83.34 Z" fill="#4e3a6e" />
<path d="M 569.88 83.36 L 570.96 83.95 L 569.88 83.36 Z" fill="#5f4361" />
<path d="M 622.30 83.15 L 623.07 83.09 L 622.69 83.79 L 621.89 83.80 L 622.30 83.15 Z" fill="#817a26" />
<path d="M 642.88 83.04 C 644.19 82.71 644.92 83.02 645.08 83.99 L 643.12 83.72 L 642.88 83.04 Z" fill="#8d2d1a" />
<path d="M 650.34 82.81 L 650.02 83.63 L 647.94 84.00 C 648.11 83.17 648.91 82.77 650.34 82.81 Z" fill="#612e26" />
<path d="M 685.22 83.26 C 684.57 83.94 683.78 84.18 682.84 83.97 C 683.19 82.88 683.99 82.64 685.22 83.26 Z" fill="#366839" />
<path d="M 723.09 83.66 L 721.05 83.98 C 721.58 82.44 722.26 82.33 723.09 83.66 Z" fill="#a42322" />
<path d="M 725.10 83.04 L 724.68 83.77 L 723.87 83.61 L 725.10 83.04 Z" fill="#6b9f45" />
<path d="M 227.83 84.18 C 228.94 83.78 229.75 83.91 230.25 84.55 C 229.27 85.31 228.47 85.19 227.83 84.18 Z" fill="#898f3b" />
<path d="M 521.02 84.06 L 523.14 84.43 C 522.17 85.58 521.46 85.46 521.02 84.06 Z" fill="#a97839" />
<path d="M 571.90 84.07 C 572.98 83.81 573.78 83.98 574.30 84.55 C 573.37 85.34 572.57 85.18 571.90 84.07 Z" fill="#b09326" />
<path d="M 579.06 84.09 C 578.43 85.19 577.64 85.34 576.69 84.55 C 577.21 83.97 578.00 83.82 579.06 84.09 Z" fill="#ab992c" />
<path d="M 619.10 84.12 C 618.50 85.17 617.71 85.32 616.72 84.59 C 617.19 83.95 617.98 83.79 619.10 84.12 Z" fill="#a4942a" />
<path d="M 710.82 84.22 C 711.92 83.78 712.73 83.89 713.25 84.55 C 712.30 85.30 711.49 85.19 710.82 84.22 Z" fill="#898f3f" />
</svg>